<svg width="65" height="65" viewBox="0 0 65 65" fill="none" xmlns="http://www.w3.org/2000/svg">
<rect width="65" height="65" rx="32.5" fill="#5A66B7"/>
<path d="M25.02 37.1804V25.4004H17.8C15.71 25.4004 14 27.1104 14 29.2004V40.6004C14 42.6904 15.71 44.4004 17.8 44.4004H19.7V50.1004L25.4 44.4004H34.9C36.99 44.4004 38.7 42.6904 38.7 40.6004V37.1424C38.5751 37.1692 38.4477 37.1826 38.32 37.1823H25.02V37.1804ZM48.2 15.9004H31.1C29.01 15.9004 27.3 17.6104 27.3 19.7004V34.9004H40.6L46.3 40.6004V34.9004H48.2C50.29 34.9004 52 33.1923 52 31.1004V19.7004C52 17.6104 50.29 15.9004 48.2 15.9004Z" fill="white"/>
</svg>
