<svg width="33" height="32" viewBox="0 0 33 32" fill="none" xmlns="http://www.w3.org/2000/svg">
<path d="M5.94983 22.4015V9.60069C5.94983 8.10726 5.94983 7.36054 6.24052 6.78984C6.49653 6.28714 6.90323 5.88044 7.40593 5.62443C7.97663 5.33374 8.72335 5.33374 10.2168 5.33374H23.0176C24.5111 5.33374 25.2578 5.33374 25.8272 5.62443C26.3299 5.88044 26.7379 6.28714 26.9939 6.78984C27.2846 7.35921 27.2846 8.10593 27.2846 9.59669V22.4069C27.2846 23.8977 27.2846 24.643 26.9939 25.2124C26.7377 25.7143 26.3293 26.1222 25.8272 26.3778C25.2578 26.6685 24.5124 26.6685 23.0216 26.6685H10.2128C8.72201 26.6685 7.9753 26.6685 7.40593 26.3778C6.90415 26.1221 6.49619 25.7142 6.24052 25.2124C5.94983 24.6417 5.94983 23.895 5.94983 22.4015Z" stroke="#226EFB" stroke-width="1.33342" stroke-linecap="round" stroke-linejoin="round"/>
<path d="M11.2816 16.0006L15.2819 20.0009L21.949 12.0004" stroke="white" stroke-width="2.66684" stroke-linecap="round" stroke-linejoin="round"/>
</svg>
