<svg width="29" height="30" viewBox="0 0 29 30" fill="none" xmlns="http://www.w3.org/2000/svg">
<g clip-path="url(#clip0_125_2541)">
<circle cx="14.0938" cy="15.0586" r="14.0938" fill="#292D5E"/>
<path d="M10.158 21V19.2915C10.158 18.6738 10.2543 18.1553 10.447 17.736C10.6396 17.311 10.9201 16.9568 11.2885 16.6735C11.6568 16.3902 12.1045 16.1465 12.6315 15.9425L14.8075 15.0925C15.3288 14.8828 15.717 14.6165 15.972 14.2935C16.227 13.9705 16.3545 13.571 16.3545 13.095C16.3545 12.602 16.1816 12.194 15.836 11.871C15.4903 11.548 15.0001 11.3865 14.3655 11.3865C13.7478 11.3865 13.235 11.5282 12.827 11.8115C12.4246 12.0892 12.1951 12.5057 12.1385 13.061H10.345C10.3733 12.3867 10.5603 11.82 10.906 11.361C11.2516 10.902 11.7191 10.5563 12.3085 10.324C12.8978 10.0917 13.575 9.9755 14.34 9.9755C15.054 9.9755 15.6943 10.1115 16.261 10.3835C16.8276 10.6555 17.2753 11.0323 17.604 11.514C17.9383 11.9957 18.1055 12.551 18.1055 13.18C18.1055 13.741 18.0035 14.2312 17.7995 14.6505C17.5955 15.0642 17.2951 15.424 16.8985 15.73C16.5018 16.036 16.0201 16.3023 15.4535 16.529L13.2435 17.4045C12.7448 17.5972 12.3736 17.8238 12.13 18.0845C11.892 18.3395 11.773 18.6738 11.773 19.0875V19.5125H18.0205V21H10.158Z" fill="white"/>
</g>
<defs>
<clipPath id="clip0_125_2541">
<rect width="28.1875" height="28.1875" fill="white" transform="translate(0 0.964844)"/>
</clipPath>
</defs>
</svg>
