<svg width="48" height="48" viewBox="0 0 48 48" fill="none" xmlns="http://www.w3.org/2000/svg">
<path d="M15 26V15C15 14.2044 15.3161 13.4413 15.8787 12.8787C16.4413 12.3161 17.2044 12 18 12C18.7956 12 19.5587 12.3161 20.1213 12.8787C20.6839 13.4413 21 14.2044 21 15V26" stroke="white" stroke-width="4" stroke-linecap="round" stroke-linejoin="round"/>
<path d="M39 25V31.5C39 37.851 33.851 43 27.5 43H26.5C20.149 43 15 37.851 15 31.5V25" stroke="white" stroke-width="4" stroke-linecap="round" stroke-linejoin="round"/>
<path d="M21 29V24C21 23.2044 21.3161 22.4413 21.8787 21.8787C22.4413 21.3161 23.2044 21 24 21C24.7956 21 25.5587 21.3161 26.1213 21.8787C26.6839 22.4413 27 23.2044 27 24M27 24V29M27 24C27 23.2044 27.3161 22.4413 27.8787 21.8787C28.4413 21.3161 29.2044 21 30 21C30.7956 21 31.5587 21.3161 32.1213 21.8787C32.6839 22.4413 33 23.2044 33 24M33 24V29M33 24C33 23.2044 33.3161 22.4413 33.8787 21.8787C34.4413 21.3161 35.2044 21 36 21C36.7956 21 37.5587 21.3161 38.1213 21.8787C38.6839 22.4413 39 23.2044 39 24V29" stroke="white" stroke-width="4" stroke-linecap="round" stroke-linejoin="round"/>
<path d="M28 15C28.0024 12.8594 27.3155 10.7749 26.041 9.055C25.112 7.79655 23.9003 6.77395 22.5036 6.06961C21.1069 5.36527 19.5642 4.99889 18 5C16.4356 4.99873 14.8928 5.36503 13.4959 6.06938C12.099 6.77373 10.8872 7.79641 9.95801 9.055C8.68396 10.775 7.99744 12.8595 8.00001 15" stroke="white" stroke-width="4" stroke-linecap="round"/>
</svg>
