<svg width="48" height="48" viewBox="0 0 48 48" fill="none" xmlns="http://www.w3.org/2000/svg">
<path d="M38 34V36M33 34V36M28 34V36M23 34V36" stroke="white" stroke-width="3" stroke-linecap="round"/>
<path d="M38 10.236L39.44 9.816L39.436 9.802L39.43 9.784L38 10.236ZM10 10.236L8.57 9.784L8.564 9.802L8.56 9.818L10 10.236ZM42.262 30.328C42.3115 30.523 42.3997 30.7061 42.5214 30.8663C42.6431 31.0266 42.7957 31.1607 42.9703 31.2607C43.1449 31.3607 43.3378 31.4246 43.5376 31.4485C43.7374 31.4724 43.9399 31.4559 44.1332 31.3999C44.3264 31.344 44.5065 31.2497 44.6625 31.1227C44.8186 30.9958 44.9476 30.8387 45.0417 30.6609C45.1358 30.483 45.1932 30.2881 45.2104 30.0876C45.2277 29.8872 45.2044 29.6853 45.142 29.494L42.262 30.33V30.328ZM2.856 29.494C2.7949 29.6849 2.77267 29.8861 2.79062 30.0857C2.80858 30.2853 2.86636 30.4793 2.96055 30.6562C3.05474 30.8332 3.18344 30.9894 3.33903 31.1158C3.49462 31.2421 3.67395 31.336 3.86644 31.3919C4.05892 31.4477 4.26065 31.4645 4.4597 31.4411C4.65876 31.4177 4.85111 31.3546 5.02539 31.2556C5.19967 31.1566 5.35235 31.0237 5.4744 30.8647C5.59645 30.7058 5.6854 30.5239 5.736 30.33L2.856 29.494ZM4.676 40.118L5.942 39.318L4.674 40.118H4.676ZM42.294 19.656C42.1831 19.2736 41.9249 18.9508 41.5761 18.7588C41.2273 18.5667 40.8164 18.5211 40.434 18.632C40.0516 18.7429 39.7288 19.0011 39.5368 19.3499C39.3447 19.6987 39.2991 20.1096 39.41 20.492L42.294 19.656ZM37.274 13.112C37.3235 13.307 37.4117 13.4901 37.5334 13.6503C37.6551 13.8106 37.8077 13.9447 37.9823 14.0447C38.1569 14.1447 38.3498 14.2086 38.5496 14.2325C38.7494 14.2564 38.9519 14.2399 39.1452 14.1839C39.3384 14.128 39.5185 14.0337 39.6745 13.9067C39.8306 13.7798 39.9596 13.6227 40.0537 13.4449C40.1478 13.267 40.2052 13.0721 40.2224 12.8716C40.2397 12.6712 40.2164 12.4693 40.154 12.278L37.274 13.112ZM24 40.5C23.6022 40.5 23.2206 40.658 22.9393 40.9393C22.658 41.2206 22.5 41.6022 22.5 42C22.5 42.3978 22.658 42.7794 22.9393 43.0607C23.2206 43.342 23.6022 43.5 24 43.5V40.5ZM16 43.5C16.3978 43.5 16.7794 43.342 17.0607 43.0607C17.342 42.7794 17.5 42.3978 17.5 42C17.5 41.6022 17.342 41.2206 17.0607 40.9393C16.7794 40.658 16.3978 40.5 16 40.5V43.5ZM15 7.5H33V4.5H15V7.5ZM33 7.5C33.856 7.5 34.506 7.7 35.032 8.11C35.57 8.53 36.13 9.29 36.57 10.686L39.43 9.784C38.87 8.004 38.034 6.646 36.876 5.744C35.702 4.83 34.354 4.5 33 4.5V7.5ZM15 4.5C13.648 4.5 12.298 4.83 11.124 5.744C9.964 6.646 9.13 8.004 8.57 9.784L11.43 10.684C11.87 9.29 12.43 8.53 12.97 8.11C13.494 7.7 14.144 7.5 15 7.5V4.5ZM8.56 9.818L2.856 29.494L5.736 30.33L11.44 10.65L8.56 9.818ZM11 28.678H37V25.678H11V28.678ZM11 40.5C9.562 40.5 8.604 40.498 7.874 40.42C7.174 40.344 6.856 40.212 6.644 40.06L4.912 42.51C5.708 43.074 6.596 43.3 7.552 43.402C8.48 43.502 9.628 43.5 11 43.5V40.5ZM2.5 34.588C2.5 36.046 2.5 37.246 2.592 38.212C2.686 39.198 2.892 40.102 3.406 40.918L5.942 39.318C5.782 39.066 5.652 38.692 5.578 37.924C5.502 37.136 5.5 36.104 5.5 34.588H2.5ZM6.644 40.06C6.36422 39.8602 6.12438 39.6094 5.942 39.318L3.406 40.918C3.802 41.544 4.31 42.086 4.912 42.51L6.644 40.06ZM42.5 34.588C42.5 36.104 42.5 37.136 42.422 37.924C42.348 38.692 42.216 39.064 42.058 39.318L44.594 40.918C45.11 40.102 45.314 39.198 45.408 38.212C45.502 37.246 45.5 36.046 45.5 34.588H42.5ZM37 43.5C38.372 43.5 39.52 43.502 40.446 43.402C41.404 43.298 42.292 43.074 43.088 42.51L41.356 40.062C41.144 40.212 40.826 40.344 40.126 40.42C39.396 40.498 38.438 40.5 37 40.5V43.5ZM42.058 39.318C41.8743 39.6091 41.6359 39.8618 41.356 40.062L43.088 42.51C43.688 42.086 44.2 41.544 44.594 40.918L42.058 39.318ZM37 28.678C38.438 28.678 39.396 28.678 40.126 28.758C40.826 28.832 41.144 28.964 41.356 29.114L43.088 26.666C42.292 26.102 41.404 25.878 40.448 25.774C39.52 25.674 38.372 25.678 37 25.678V28.678ZM45.5 34.588C45.5 33.13 45.5 31.93 45.408 30.966C45.314 29.978 45.108 29.074 44.594 28.258L42.058 29.858C42.218 30.112 42.348 30.484 42.422 31.252C42.498 32.04 42.5 33.072 42.5 34.588H45.5ZM41.356 29.114C41.628 29.308 41.868 29.56 42.056 29.86L44.596 28.26C44.2029 27.6348 43.6905 27.0931 43.088 26.666L41.356 29.114ZM11 25.678C9.628 25.678 8.48 25.676 7.554 25.776C6.596 25.876 5.708 26.102 4.912 26.666L6.644 29.114C6.856 28.964 7.174 28.834 7.874 28.758C8.604 28.678 9.562 28.678 11 28.678V25.678ZM5.5 34.588C5.5 33.072 5.5 32.04 5.578 31.252C5.652 30.484 5.784 30.112 5.942 29.86L3.406 28.26C2.89 29.074 2.686 29.98 2.592 30.966C2.498 31.93 2.5 33.13 2.5 34.588H5.5ZM4.912 26.666C4.312 27.09 3.8 27.634 3.406 28.258L5.942 29.858C6.12567 29.5669 6.36407 29.3142 6.644 29.114L4.912 26.666ZM39.412 20.49L42.262 30.33L45.142 29.494L42.292 19.654L39.412 20.49ZM36.56 10.654L37.272 13.114L40.152 12.28L39.44 9.82L36.56 10.654ZM37 40.5H24V43.5H37V40.5ZM16 40.5H11V43.5H16V40.5Z" fill="white"/>
</svg>
