<svg width="182" height="28" viewBox="0 0 182 28" fill="none" xmlns="http://www.w3.org/2000/svg">
<rect width="28.9809" height="27.8217" transform="translate(0 0.0888672)" fill="#02B476"/>
<path d="M8.18422 22.2429L9.69123 15.7661L4.63696 11.4098L11.3142 10.8336L13.9108 4.72559L16.5075 10.8336L23.1847 11.4098L18.1305 15.7661L19.6375 22.2429L13.9108 18.8086L8.18422 22.2429Z" fill="white"/>
<rect width="28.9809" height="27.8217" transform="translate(38.2548 0.088623)" fill="#02B476"/>
<path d="M46.4389 22.2427L47.9459 15.7659L42.8916 11.4096L49.5688 10.8334L52.1655 4.72534L54.7622 10.8334L61.4394 11.4096L56.3851 15.7659L57.8921 22.2427L52.1655 18.8084L46.4389 22.2427Z" fill="white"/>
<rect width="28.9809" height="27.8217" transform="translate(76.5096 0.088623)" fill="#02B476"/>
<path d="M84.6935 22.2427L86.2005 15.7659L81.1463 11.4096L87.8235 10.8334L90.4202 4.72534L93.0168 10.8334L99.694 11.4096L94.6398 15.7659L96.1468 22.2427L90.4202 18.8084L84.6935 22.2427Z" fill="white"/>
<rect width="28.9809" height="27.8217" transform="translate(114.764 0.088623)" fill="#02B476"/>
<path d="M122.949 22.2427L124.456 15.7659L119.401 11.4096L126.079 10.8334L128.675 4.72534L131.272 10.8334L137.949 11.4096L132.895 15.7659L134.402 22.2427L128.675 18.8084L122.949 22.2427Z" fill="white"/>
<rect width="28.9809" height="27.8217" transform="translate(153.019 0.088623)" fill="#02B476"/>
<rect width="4" height="28" transform="matrix(-1 0 0 1 182 -0.000244141)" fill="white" fill-opacity="0.75"/>
<path d="M161.203 22.2427L162.71 15.7659L157.656 11.4096L164.333 10.8334L166.93 4.72534L169.527 10.8334L176.204 11.4096L171.15 15.7659L172.657 22.2427L166.93 18.8084L161.203 22.2427Z" fill="white"/>
</svg>
