<svg width="4289" height="183" viewBox="0 0 4289 183" fill="none" xmlns="http://www.w3.org/2000/svg">
<g clip-path="url(#clip0_335_1445)">
<g filter="url(#filter0_f_335_1445)">
<path d="M0 17C56 17 46.25 155 220 155C317 155 354.75 17 458.25 17C561.75 17 546.5 155 696.5 155C846.5 155 785.75 17 934.75 17C1083.75 17 916.5 155 1173 155C1292.5 155 1329 17 1429.5 17" stroke="#1C78FF" stroke-opacity="0.66" stroke-width="2"/>
<path d="M0 17C56 17 168.25 155 342 155C439 155 444 17 547.5 17C651 17 636 155 786 155C936 155 839.5 17 988.5 17C1137.5 17 975.5 155 1232 155C1351.5 155 1329 17 1429.5 17" stroke="#1C78FF" stroke-opacity="0.66" stroke-width="0.5"/>
<path d="M0 17C56 17 108.75 155 282.5 155C379.5 155 384 17 487.5 17C591 17 591.5 155 741.5 155C891.5 155 802.5 54 951.5 54C1100.5 54 1026.5 155 1283 155C1402.5 155 1329 17 1429.5 17" stroke="#1C78FF" stroke-opacity="0.66" stroke-width="0.5"/>
<path d="M0 17C56 17 139.25 126 313 126C410 126 461 0 564.5 0C668 0 653 172 803 172C953 172 839.5 0 988.5 0C1137.5 0 975.5 183 1232 183C1351.5 183 1329 17 1429.5 17" stroke="#1C78FF" stroke-opacity="0.66" stroke-width="0.5"/>
<path d="M0 17C56 17 108.75 155 282.5 155C379.5 155 384 17 487.5 17C591 17 591.5 155 741.5 155C891.5 155 802.5 54 951.5 54C1100.5 54 1026.5 155 1283 155C1402.5 155 1329 17 1429.5 17" stroke="#1C78FF" stroke-opacity="0.66" stroke-width="0.5"/>
<path d="M1429.5 17C1485.5 17 1475.75 155 1649.5 155C1746.5 155 1784.25 17 1887.75 17C1991.25 17 1976 155 2126 155C2276 155 2215.25 17 2364.25 17C2513.25 17 2346 155 2602.5 155C2722 155 2758.5 17 2859 17" stroke="#1C78FF" stroke-opacity="0.66" stroke-width="2"/>
<path d="M1429.5 17C1485.5 17 1597.75 155 1771.5 155C1868.5 155 1873.5 17 1977 17C2080.5 17 2065.5 155 2215.5 155C2365.5 155 2269 17 2418 17C2567 17 2405 155 2661.5 155C2781 155 2758.5 17 2859 17" stroke="#1C78FF" stroke-opacity="0.66" stroke-width="0.5"/>
<path d="M1429.5 17C1485.5 17 1538.25 155 1712 155C1809 155 1813.5 17 1917 17C2020.5 17 2021 155 2171 155C2321 155 2232 54 2381 54C2530 54 2456 155 2712.5 155C2832 155 2758.5 17 2859 17" stroke="#1C78FF" stroke-opacity="0.66" stroke-width="0.5"/>
<path d="M1429.5 17C1485.5 17 1568.75 126 1742.5 126C1839.5 126 1890.5 0 1994 0C2097.5 0 2082.5 172 2232.5 172C2382.5 172 2269 0 2418 0C2567 0 2405 183 2661.5 183C2781 183 2758.5 17 2859 17" stroke="#1C78FF" stroke-opacity="0.66" stroke-width="0.5"/>
<path d="M1429.5 17C1485.5 17 1538.25 155 1712 155C1809 155 1813.5 17 1917 17C2020.5 17 2021 155 2171 155C2321 155 2232 54 2381 54C2530 54 2456 155 2712.5 155C2832 155 2758.5 17 2859 17" stroke="#1C78FF" stroke-opacity="0.66" stroke-width="0.5"/>
<path d="M2859 17C2915 17 2905.25 155 3079 155C3176 155 3213.75 17 3317.25 17C3420.75 17 3405.5 155 3555.5 155C3705.5 155 3644.75 17 3793.75 17C3942.75 17 3775.5 155 4032 155C4151.5 155 4188 17 4288.5 17" stroke="#1C78FF" stroke-opacity="0.66" stroke-width="2"/>
<path d="M2859 17C2915 17 3027.25 155 3201 155C3298 155 3303 17 3406.5 17C3510 17 3495 155 3645 155C3795 155 3698.5 17 3847.5 17C3996.5 17 3834.5 155 4091 155C4210.5 155 4188 17 4288.5 17" stroke="#1C78FF" stroke-opacity="0.66" stroke-width="0.5"/>
<path d="M2859 17C2915 17 2967.75 155 3141.5 155C3238.5 155 3243 17 3346.5 17C3450 17 3450.5 155 3600.5 155C3750.5 155 3661.5 54 3810.5 54C3959.5 54 3885.5 155 4142 155C4261.5 155 4188 17 4288.5 17" stroke="#1C78FF" stroke-opacity="0.66" stroke-width="0.5"/>
<path d="M2859 17C2915 17 2998.25 126 3172 126C3269 126 3320 0 3423.5 0C3527 0 3512 172 3662 172C3812 172 3698.5 0 3847.5 0C3996.5 0 3834.5 183 4091 183C4210.5 183 4188 17 4288.5 17" stroke="#1C78FF" stroke-opacity="0.66" stroke-width="0.5"/>
<path d="M2859 17C2915 17 2967.75 155 3141.5 155C3238.5 155 3243 17 3346.5 17C3450 17 3450.5 155 3600.5 155C3750.5 155 3661.5 54 3810.5 54C3959.5 54 3885.5 155 4142 155C4261.5 155 4188 17 4288.5 17" stroke="#1C78FF" stroke-opacity="0.66" stroke-width="0.5"/>
</g>
<path d="M0 17C56 17 46.25 155 220 155C317 155 354.75 17 458.25 17C561.75 17 546.5 155 696.5 155C846.5 155 785.75 17 934.75 17C1083.75 17 916.5 155 1173 155C1292.5 155 1329 17 1429.5 17" stroke="#1C78FF" stroke-width="2"/>
<path d="M0 17C56 17 168.25 155 342 155C439 155 444 17 547.5 17C651 17 636 155 786 155C936 155 839.5 17 988.5 17C1137.5 17 975.5 155 1232 155C1351.5 155 1329 17 1429.5 17" stroke="#1C78FF" stroke-width="0.5"/>
<path d="M0 17C56 17 108.75 155 282.5 155C379.5 155 384 17 487.5 17C591 17 591.5 155 741.5 155C891.5 155 802.5 54 951.5 54C1100.5 54 1026.5 155 1283 155C1402.5 155 1329 17 1429.5 17" stroke="#1C78FF" stroke-width="0.5"/>
<path d="M0 17C56 17 139.25 126 313 126C410 126 461 0 564.5 0C668 0 653 172 803 172C953 172 839.5 0 988.5 0C1137.5 0 975.5 183 1232 183C1351.5 183 1329 17 1429.5 17" stroke="#1C78FF" stroke-width="0.5"/>
<path d="M0 17C56 17 108.75 155 282.5 155C379.5 155 384 17 487.5 17C591 17 591.5 155 741.5 155C891.5 155 802.5 54 951.5 54C1100.5 54 1026.5 155 1283 155C1402.5 155 1329 17 1429.5 17" stroke="#1C78FF" stroke-width="0.5"/>
<path d="M1429.5 17C1485.5 17 1475.75 155 1649.5 155C1746.5 155 1784.25 17 1887.75 17C1991.25 17 1976 155 2126 155C2276 155 2215.25 17 2364.25 17C2513.25 17 2346 155 2602.5 155C2722 155 2758.5 17 2859 17" stroke="#1C78FF" stroke-width="2"/>
<path d="M1429.5 17C1485.5 17 1597.75 155 1771.5 155C1868.5 155 1873.5 17 1977 17C2080.5 17 2065.5 155 2215.5 155C2365.5 155 2269 17 2418 17C2567 17 2405 155 2661.5 155C2781 155 2758.5 17 2859 17" stroke="#1C78FF" stroke-width="0.5"/>
<path d="M1429.5 17C1485.5 17 1538.25 155 1712 155C1809 155 1813.5 17 1917 17C2020.5 17 2021 155 2171 155C2321 155 2232 54 2381 54C2530 54 2456 155 2712.5 155C2832 155 2758.5 17 2859 17" stroke="#1C78FF" stroke-width="0.5"/>
<path d="M1429.5 17C1485.5 17 1568.75 126 1742.5 126C1839.5 126 1890.5 0 1994 0C2097.5 0 2082.5 172 2232.5 172C2382.5 172 2269 0 2418 0C2567 0 2405 183 2661.5 183C2781 183 2758.5 17 2859 17" stroke="#1C78FF" stroke-width="0.5"/>
<path d="M1429.5 17C1485.5 17 1538.25 155 1712 155C1809 155 1813.5 17 1917 17C2020.5 17 2021 155 2171 155C2321 155 2232 54 2381 54C2530 54 2456 155 2712.5 155C2832 155 2758.5 17 2859 17" stroke="#1C78FF" stroke-width="0.5"/>
<path d="M2859 17C2915 17 2905.25 155 3079 155C3176 155 3213.75 17 3317.25 17C3420.75 17 3405.5 155 3555.5 155C3705.5 155 3644.75 17 3793.75 17C3942.75 17 3775.5 155 4032 155C4151.5 155 4188 17 4288.5 17" stroke="#1C78FF" stroke-width="2"/>
<path d="M2859 17C2915 17 3027.25 155 3201 155C3298 155 3303 17 3406.5 17C3510 17 3495 155 3645 155C3795 155 3698.5 17 3847.5 17C3996.5 17 3834.5 155 4091 155C4210.5 155 4188 17 4288.5 17" stroke="#1C78FF" stroke-width="0.5"/>
<path d="M2859 17C2915 17 2967.75 155 3141.5 155C3238.5 155 3243 17 3346.5 17C3450 17 3450.5 155 3600.5 155C3750.5 155 3661.5 54 3810.5 54C3959.5 54 3885.5 155 4142 155C4261.5 155 4188 17 4288.5 17" stroke="#1C78FF" stroke-width="0.5"/>
<path d="M2859 17C2915 17 2998.25 126 3172 126C3269 126 3320 0 3423.5 0C3527 0 3512 172 3662 172C3812 172 3698.5 0 3847.5 0C3996.5 0 3834.5 183 4091 183C4210.5 183 4188 17 4288.5 17" stroke="#1C78FF" stroke-width="0.5"/>
<path d="M2859 17C2915 17 2967.75 155 3141.5 155C3238.5 155 3243 17 3346.5 17C3450 17 3450.5 155 3600.5 155C3750.5 155 3661.5 54 3810.5 54C3959.5 54 3885.5 155 4142 155C4261.5 155 4188 17 4288.5 17" stroke="#1C78FF" stroke-width="0.5"/>
</g>
<defs>
<filter id="filter0_f_335_1445" x="-14" y="-14.25" width="4316.5" height="211.5" filterUnits="userSpaceOnUse" color-interpolation-filters="sRGB">
<feFlood flood-opacity="0" result="BackgroundImageFix"/>
<feBlend mode="normal" in="SourceGraphic" in2="BackgroundImageFix" result="shape"/>
<feGaussianBlur stdDeviation="7" result="effect1_foregroundBlur_335_1445"/>
</filter>
<clipPath id="clip0_335_1445">
<rect width="4288.5" height="183" fill="white"/>
</clipPath>
</defs>
</svg>
