<svg width="48" height="48" viewBox="0 0 48 48" fill="none" xmlns="http://www.w3.org/2000/svg">
<path d="M36.984 4.65996L43.342 11.02C43.7599 11.4378 44.0913 11.9339 44.3175 12.4799C44.5436 13.0258 44.66 13.611 44.66 14.202C44.66 14.7929 44.5436 15.3781 44.3175 15.924C44.0913 16.47 43.7599 16.9661 43.342 17.384L38.174 22.552C39.2383 22.7132 40.2096 23.2506 40.9116 24.0667C41.6135 24.8828 41.9997 25.9235 42 27V37.5C42 38.6934 41.5259 39.838 40.682 40.6819C39.8381 41.5259 38.6935 42 37.5 42H10.5C9.30653 42 8.16193 41.5259 7.31802 40.6819C6.47411 39.838 6 38.6934 6 37.5V10.5C6 9.30648 6.47411 8.16189 7.31802 7.31798C8.16193 6.47406 9.30653 5.99996 10.5 5.99996H21C22.0774 5.99992 23.1191 6.38644 23.9357 7.08926C24.7523 7.79209 25.2896 8.76457 25.45 9.82996L30.62 4.65996C31.0379 4.24209 31.5339 3.91062 32.0799 3.68447C32.6259 3.45832 33.211 3.34192 33.802 3.34192C34.393 3.34192 34.9781 3.45832 35.5241 3.68447C36.0701 3.91062 36.5661 4.24209 36.984 4.65996ZM9 37.5C9 38.33 9.672 39 10.5 39H22.498L22.5 25.5H9V37.5ZM25.498 39H37.5C37.8978 39 38.2794 38.8419 38.5607 38.5606C38.842 38.2793 39 37.8978 39 37.5V27C39 26.6021 38.842 26.2206 38.5607 25.9393C38.2794 25.658 37.8978 25.5 37.5 25.5H25.498V39ZM21 8.99996H10.5C10.1022 8.99996 9.72064 9.15799 9.43934 9.4393C9.15804 9.7206 9 10.1021 9 10.5V22.5H22.5V10.5C22.5 10.1021 22.342 9.7206 22.0607 9.4393C21.7794 9.15799 21.3978 8.99996 21 8.99996ZM25.5 18.62V22.5H29.38L25.5 18.62ZM32.74 6.78396L26.386 13.14C26.2466 13.2793 26.136 13.4447 26.0606 13.6267C25.9852 13.8088 25.9463 14.0039 25.9463 14.201C25.9463 14.398 25.9852 14.5932 26.0606 14.7752C26.136 14.9573 26.2466 15.1227 26.386 15.262L32.744 21.62C33.0252 21.9009 33.4065 22.0586 33.804 22.0586C34.2015 22.0586 34.5827 21.9009 34.864 21.62L41.224 15.262C41.5049 14.9807 41.6627 14.5995 41.6627 14.202C41.6627 13.8045 41.5049 13.4232 41.224 13.142L34.864 6.78196C34.5827 6.50106 34.2015 6.34328 33.804 6.34328C33.4065 6.34328 33.0252 6.50106 32.744 6.78196L32.74 6.78396Z" fill="white"/>
</svg>
