<svg width="31" height="32" viewBox="0 0 31 32" fill="none" xmlns="http://www.w3.org/2000/svg">
<path d="M27.125 18.9688C27.125 19.2257 27.0229 19.4721 26.8413 19.6538C26.6596 19.8354 26.4132 19.9375 26.1562 19.9375H23.25V21.875H25.1875C25.4444 21.875 25.6908 21.9771 25.8725 22.1587C26.0542 22.3404 26.1562 22.5868 26.1562 22.8438C26.1562 23.1007 26.0542 23.3471 25.8725 23.5288C25.6908 23.7104 25.4444 23.8125 25.1875 23.8125H23.25V25.75C23.25 26.0069 23.1479 26.2533 22.9663 26.435C22.7846 26.6167 22.5382 26.7188 22.2812 26.7188C22.0243 26.7188 21.7779 26.6167 21.5962 26.435C21.4146 26.2533 21.3125 26.0069 21.3125 25.75V18.9688C21.3125 18.7118 21.4146 18.4654 21.5962 18.2837C21.7779 18.1021 22.0243 18 22.2812 18H26.1562C26.4132 18 26.6596 18.1021 26.8413 18.2837C27.0229 18.4654 27.125 18.7118 27.125 18.9688ZM11.1406 21.3906C11.1406 22.2899 10.7834 23.1523 10.1475 23.7882C9.51167 24.424 8.64925 24.7812 7.75 24.7812H6.78125V25.75C6.78125 26.0069 6.67919 26.2533 6.49751 26.435C6.31583 26.6167 6.06943 26.7188 5.8125 26.7188C5.55557 26.7188 5.30917 26.6167 5.12749 26.435C4.94581 26.2533 4.84375 26.0069 4.84375 25.75V18.9688C4.84375 18.7118 4.94581 18.4654 5.12749 18.2837C5.30917 18.1021 5.55557 18 5.8125 18H7.75C8.64925 18 9.51167 18.3572 10.1475 18.9931C10.7834 19.629 11.1406 20.4914 11.1406 21.3906ZM9.20312 21.3906C9.20312 21.0052 9.05003 20.6356 8.77751 20.3631C8.505 20.0906 8.13539 19.9375 7.75 19.9375H6.78125V22.8438H7.75C8.13539 22.8438 8.505 22.6907 8.77751 22.4181C9.05003 22.1456 9.20312 21.776 9.20312 21.3906ZM19.8594 22.3594C19.8594 23.5156 19.4001 24.6244 18.5825 25.4419C17.765 26.2595 16.6562 26.7188 15.5 26.7188H13.5625C13.3056 26.7188 13.0592 26.6167 12.8775 26.435C12.6958 26.2533 12.5938 26.0069 12.5938 25.75V18.9688C12.5938 18.7118 12.6958 18.4654 12.8775 18.2837C13.0592 18.1021 13.3056 18 13.5625 18H15.5C16.6562 18 17.765 18.4593 18.5825 19.2768C19.4001 20.0944 19.8594 21.2032 19.8594 22.3594ZM17.9219 22.3594C17.9219 21.7171 17.6667 21.101 17.2125 20.6469C16.7583 20.1927 16.1423 19.9375 15.5 19.9375H14.5312V24.7812H15.5C16.1423 24.7812 16.7583 24.5261 17.2125 24.0719C17.6667 23.6177 17.9219 23.0017 17.9219 22.3594ZM4.84375 14.125V5.40625C4.84375 4.89239 5.04788 4.39958 5.41123 4.03623C5.77458 3.67288 6.26739 3.46875 6.78125 3.46875H18.4062C18.5335 3.46865 18.6595 3.49362 18.7771 3.54224C18.8947 3.59086 19.0016 3.66218 19.0916 3.75211L25.8729 10.5334C25.9628 10.6234 26.0341 10.7303 26.0828 10.8479C26.1314 10.9655 26.1563 11.0915 26.1562 11.2188V14.125C26.1562 14.3819 26.0542 14.6283 25.8725 14.81C25.6908 14.9917 25.4444 15.0938 25.1875 15.0938C24.9306 15.0938 24.6842 14.9917 24.5025 14.81C24.3208 14.6283 24.2188 14.3819 24.2188 14.125V12.1875H18.4062C18.1493 12.1875 17.9029 12.0854 17.7212 11.9038C17.5396 11.7221 17.4375 11.4757 17.4375 11.2188V5.40625H6.78125V14.125C6.78125 14.3819 6.67919 14.6283 6.49751 14.81C6.31583 14.9917 6.06943 15.0938 5.8125 15.0938C5.55557 15.0938 5.30917 14.9917 5.12749 14.81C4.94581 14.6283 4.84375 14.3819 4.84375 14.125ZM19.375 10.25H22.8492L19.375 6.77582V10.25Z" fill="#11164C"/>
</svg>
