<svg width="26" height="26" viewBox="0 0 26 26" fill="none" xmlns="http://www.w3.org/2000/svg">
<g id="ic:round-phone">
<path id="Vector" d="M20.8294 16.5319L18.0777 16.2178C17.7542 16.1798 17.4262 16.2156 17.1185 16.3225C16.8108 16.4295 16.5313 16.6048 16.301 16.8353L14.3077 18.8286C11.2323 17.2645 8.73263 14.7648 7.16854 11.6894L9.1727 9.68528C9.63854 9.21944 9.86604 8.56944 9.7902 7.90861L9.47604 5.17861C9.41462 4.65013 9.161 4.1627 8.76346 3.80911C8.36592 3.45552 7.85224 3.26048 7.3202 3.26111H5.44604C4.22187 3.26111 3.20354 4.27944 3.27937 5.50361C3.85354 14.7553 11.2527 22.1436 20.4935 22.7178C21.7177 22.7936 22.736 21.7753 22.736 20.5511V18.6769C22.7469 17.5828 21.9235 16.6619 20.8294 16.5319Z" fill="white"/>
</g>
</svg>
