<svg width="48" height="48" viewBox="0 0 48 48" fill="none" xmlns="http://www.w3.org/2000/svg">
<path d="M22 34H26V22H22V34ZM24 18C24.5667 18 25.042 17.808 25.426 17.424C25.81 17.04 26.0013 16.5653 26 16C26 15.4333 25.808 14.958 25.424 14.574C25.04 14.19 24.5653 13.9987 24 14C23.4333 14 22.958 14.192 22.574 14.576C22.19 14.96 21.9987 15.4347 22 16C22 16.5667 22.192 17.042 22.576 17.426C22.96 17.81 23.4347 18.0013 24 18ZM24 44C19.3667 42.8333 15.5413 40.1747 12.524 36.024C9.50667 31.8733 7.99867 27.2653 8 22.2V10L24 4L40 10V22.2C40 27.2667 38.4913 31.8753 35.474 36.026C32.4567 40.1767 28.632 42.8347 24 44ZM24 39.8C27.4667 38.7 30.3333 36.5 32.6 33.2C34.8667 29.9 36 26.2333 36 22.2V12.75L24 8.25L12 12.75V22.2C12 26.2333 13.1333 29.9 15.4 33.2C17.6667 36.5 20.5333 38.7 24 39.8Z" fill="white"/>
</svg>
