<svg width="198" height="198" viewBox="0 0 198 198" fill="none" xmlns="http://www.w3.org/2000/svg">
<path d="M99 198C80.4717 198 62.3153 192.8 46.5957 182.993C30.8761 173.185 18.2243 159.163 10.0791 142.521C1.93398 125.879 -1.37753 107.285 0.521209 88.8547C2.41995 70.424 9.45273 52.8959 20.8197 38.2642C32.1867 23.6324 47.4316 12.4841 64.8206 6.08732C82.2096 -0.309507 101.045 -1.69814 119.184 2.07935C137.323 5.85683 154.038 14.6488 167.428 27.4554C180.818 40.2619 190.345 56.569 194.926 74.522L99 99L99 198Z" fill="#76A3D6"/>
<path d="M194.101 71.4886C198.47 86.5929 199.179 102.521 196.169 117.954C193.158 133.387 186.515 147.88 176.79 160.235C167.064 172.59 154.535 182.451 140.241 189.001C125.946 195.551 110.297 198.602 94.5893 197.902L99 99L194.101 71.4886Z" fill="#ECECEC"/>
<g filter="url(#filter0_d_197_37)">
<path d="M45 21.492C45 17.9067 47.9065 15.0002 51.4918 15.0002H137.508C141.094 15.0002 144 17.9067 144 21.492V52.2458C144 55.8311 141.094 58.7376 137.508 58.7376H108.643L94.5 69.6719L80.3571 58.7376H51.4918C47.9065 58.7376 45 55.8311 45 52.2458V21.492Z" fill="white"/>
</g>
<path d="M77.3862 41.2452C76.4065 41.2452 75.5462 40.9814 74.8052 40.4539C74.0704 39.9264 73.499 39.2105 73.0908 38.3062C72.6826 37.3956 72.4785 36.3626 72.4785 35.2071C72.4785 33.8506 72.6857 32.6951 73.1002 31.7406C73.5147 30.7798 74.1018 30.0482 74.8617 29.5458C75.6216 29.0371 76.5196 28.7828 77.5558 28.7828C78.3031 28.7828 78.9624 28.9241 79.5339 29.2067C80.1054 29.483 80.5607 29.8723 80.8998 30.3747C81.2389 30.8771 81.4336 31.4643 81.4838 32.1362H79.5527C79.4711 31.6024 79.2733 31.1817 78.9593 30.874C78.6453 30.56 78.1932 30.403 77.6029 30.403C76.573 30.403 75.7597 30.852 75.1631 31.75C74.5728 32.648 74.2777 33.8726 74.2777 35.4237C74.2777 35.6373 74.2808 35.879 74.2871 36.1491C74.2997 36.4191 74.3248 36.6703 74.3624 36.9026C74.4378 36.0925 74.6419 35.4583 74.9747 34.9998C75.3076 34.5351 75.7189 34.2054 76.2087 34.0108C76.7048 33.8161 77.2261 33.7188 77.7724 33.7188C78.5072 33.7188 79.1603 33.8789 79.7317 34.1992C80.3095 34.5194 80.7616 34.9653 81.0882 35.5368C81.421 36.102 81.5874 36.7519 81.5874 37.4867C81.5874 38.234 81.4116 38.8902 81.0599 39.4554C80.7082 40.0206 80.2153 40.4602 79.581 40.7742C78.9467 41.0882 78.2151 41.2452 77.3862 41.2452ZM77.3862 39.5967C78.0519 39.5967 78.6076 39.402 79.0535 39.0127C79.4994 38.617 79.7223 38.0895 79.7223 37.4301C79.7223 36.7456 79.4994 36.2119 79.0535 35.8288C78.6076 35.4394 78.0519 35.2448 77.3862 35.2448C76.9466 35.2448 76.551 35.339 76.1993 35.5274C75.8539 35.7095 75.5776 35.9669 75.3704 36.2998C75.1694 36.6263 75.0689 37.0031 75.0689 37.4301C75.0689 38.0895 75.2919 38.617 75.7377 39.0127C76.1836 39.402 76.7331 39.5967 77.3862 39.5967ZM88.6875 41.2452C87.8837 41.2452 87.1615 41.1039 86.521 40.8213C85.8804 40.5324 85.3718 40.1148 84.995 39.5684C84.6182 39.0158 84.4235 38.3439 84.4109 37.5526H86.2195C86.2195 38.2308 86.455 38.7426 86.926 39.088C87.4033 39.4271 87.9905 39.5967 88.6875 39.5967C89.4662 39.5967 90.0879 39.3549 90.5526 38.8714C91.0174 38.3815 91.2497 37.7818 91.2497 37.0722C91.2497 35.6655 90.3297 34.9622 88.4897 34.9622H85.0798L85.6167 28.9994H92.5025V30.6385H87.0579L87.4159 30.0733L87.0391 33.9825L86.8507 33.8035C87.1521 33.7345 87.5006 33.6842 87.8963 33.6528C88.2919 33.6214 88.6404 33.6057 88.9419 33.6057C90.2104 33.6057 91.2183 33.9009 91.9656 34.4912C92.7192 35.0752 93.096 35.9355 93.096 37.0722C93.096 37.8572 92.9139 38.5668 92.5496 39.2011C92.1917 39.8291 91.683 40.3283 91.0236 40.6988C90.3642 41.063 89.5855 41.2452 88.6875 41.2452ZM100.815 41.2452C99.8479 41.2452 98.9719 40.994 98.1869 40.4916C97.4019 39.9829 96.7771 39.2701 96.3123 38.3533C95.8476 37.4301 95.6153 36.3469 95.6153 35.1035C95.6153 34.0924 95.7597 33.1944 96.0486 32.4094C96.3437 31.6244 96.7488 30.9619 97.2637 30.4218C97.785 29.8818 98.3878 29.4736 99.0723 29.1973C99.7568 28.921 100.488 28.7828 101.267 28.7828C102.284 28.7828 103.157 28.9963 103.886 29.4233C104.614 29.8504 105.214 30.5286 105.685 31.458L103.914 31.9667C103.537 31.4455 103.123 31.0561 102.671 30.7986C102.219 30.5349 101.722 30.403 101.182 30.403C100.523 30.403 99.9138 30.5945 99.3549 30.9776C98.8023 31.3544 98.3596 31.8945 98.0267 32.5978C97.6939 33.2949 97.5275 34.1301 97.5275 35.1035C97.5275 35.9889 97.6657 36.7708 97.942 37.449C98.2246 38.1209 98.6202 38.6484 99.1289 39.0315C99.6438 39.4083 100.25 39.5967 100.947 39.5967C101.5 39.5967 101.996 39.4711 102.435 39.2199C102.875 38.9687 103.22 38.5982 103.471 38.1084C103.729 37.6123 103.858 37 103.858 36.2715H104.329C104.329 37.2826 104.206 38.1618 103.961 38.9091C103.723 39.6501 103.346 40.2247 102.831 40.6329C102.316 41.0411 101.644 41.2452 100.815 41.2452ZM104.14 41.0002L103.858 38.2497V36.215L100.975 36.1396V34.9622H105.591V41.0002H104.14ZM109.569 41.0002V28.9994H114.213C115.111 28.9994 115.855 29.1439 116.445 29.4328C117.042 29.7216 117.488 30.1047 117.783 30.582C118.078 31.0592 118.226 31.5836 118.226 32.1551C118.226 32.8396 118.034 33.4299 117.651 33.926C117.274 34.4221 116.722 34.7644 115.993 34.9527C116.471 35.0344 116.891 35.2071 117.256 35.4708C117.62 35.7283 117.906 36.0486 118.113 36.4317C118.326 36.8147 118.433 37.2386 118.433 37.7033C118.433 38.099 118.364 38.4914 118.226 38.8808C118.088 39.2701 117.858 39.625 117.538 39.9452C117.218 40.2655 116.788 40.523 116.248 40.7177C115.708 40.906 115.032 41.0002 114.222 41.0002H109.569ZM111.359 39.4366H114.185C115.001 39.4366 115.591 39.267 115.956 38.9279C116.326 38.5888 116.511 38.1492 116.511 37.6091C116.511 37.0628 116.317 36.6232 115.927 36.2904C115.538 35.9575 114.957 35.7911 114.185 35.7911H111.359V39.4366ZM111.359 30.5443V34.2368H114.147C114.844 34.2368 115.39 34.0704 115.786 33.7376C116.188 33.4048 116.389 32.9432 116.389 32.3529C116.389 31.794 116.194 31.3544 115.805 31.0341C115.422 30.7076 114.875 30.5443 114.166 30.5443H111.359Z" fill="#232D42"/>
<defs>
<filter id="filter0_d_197_37" x="38.5082" y="11.7543" width="111.984" height="67.6552" filterUnits="userSpaceOnUse" color-interpolation-filters="sRGB">
<feFlood flood-opacity="0" result="BackgroundImageFix"/>
<feColorMatrix in="SourceAlpha" type="matrix" values="0 0 0 0 0 0 0 0 0 0 0 0 0 0 0 0 0 0 127 0" result="hardAlpha"/>
<feOffset dy="3.2459"/>
<feGaussianBlur stdDeviation="3.2459"/>
<feColorMatrix type="matrix" values="0 0 0 0 0 0 0 0 0 0 0 0 0 0 0 0 0 0 0.08 0"/>
<feBlend mode="normal" in2="BackgroundImageFix" result="effect1_dropShadow_197_37"/>
<feBlend mode="normal" in="SourceGraphic" in2="effect1_dropShadow_197_37" result="shape"/>
</filter>
</defs>
</svg>
