<svg width="198" height="198" viewBox="0 0 198 198" fill="none" xmlns="http://www.w3.org/2000/svg">
<path d="M99 198C80.3748 198 62.1274 192.746 46.354 182.841C30.5806 172.937 17.9211 158.784 9.82988 142.008C1.73864 125.232 -1.45615 106.514 0.612552 88.0041C2.68125 69.4941 9.92951 51.9432 21.5246 37.3675C33.1198 22.7918 48.5914 11.7826 66.1622 5.60472C83.733 -0.573168 102.69 -1.66917 120.856 2.44263C139.021 6.55442 155.659 15.7072 168.856 28.8495C182.054 41.9918 191.277 58.5905 195.465 76.7388L99 99L99 198Z" fill="#76A3D6"/>
<path d="M194.101 71.4886C199.045 88.5788 199.292 106.685 194.816 123.904C190.341 141.123 181.308 156.818 168.668 169.338C156.028 181.857 140.248 190.74 122.987 195.05C105.726 199.361 87.6225 198.94 70.5803 193.833L99 99L194.101 71.4886Z" fill="#ECECEC"/>
<g filter="url(#filter0_d_197_55)">
<path d="M45 21.492C45 17.9067 47.9065 15.0002 51.4918 15.0002H137.508C141.094 15.0002 144 17.9067 144 21.492V52.2458C144 55.8311 141.094 58.7376 137.508 58.7376H108.643L94.5 69.6719L80.3571 58.7376H51.4918C47.9065 58.7376 45 55.8311 45 52.2458V21.492Z" fill="white"/>
</g>
<defs>
<filter id="filter0_d_197_55" x="38.5082" y="11.7543" width="111.984" height="67.6552" filterUnits="userSpaceOnUse" color-interpolation-filters="sRGB">
<feFlood flood-opacity="0" result="BackgroundImageFix"/>
<feColorMatrix in="SourceAlpha" type="matrix" values="0 0 0 0 0 0 0 0 0 0 0 0 0 0 0 0 0 0 127 0" result="hardAlpha"/>
<feOffset dy="3.2459"/>
<feGaussianBlur stdDeviation="3.2459"/>
<feColorMatrix type="matrix" values="0 0 0 0 0 0 0 0 0 0 0 0 0 0 0 0 0 0 0.08 0"/>
<feBlend mode="normal" in2="BackgroundImageFix" result="effect1_dropShadow_197_55"/>
<feBlend mode="normal" in="SourceGraphic" in2="effect1_dropShadow_197_55" result="shape"/>
</filter>
</defs>
</svg>
