<svg width="198" height="198" viewBox="0 0 198 198" fill="none" xmlns="http://www.w3.org/2000/svg">
<path d="M198 99C198 124.342 188.282 148.719 170.847 167.111C153.412 185.502 129.588 196.507 104.282 197.859C78.976 199.211 54.115 190.807 34.8197 174.378C15.5243 157.949 3.26388 134.747 0.563607 109.549C-2.13667 84.351 4.92884 59.0771 20.3049 38.9327C35.6809 18.7883 58.1966 5.30741 83.2144 1.26661C108.232 -2.77419 133.847 2.93283 154.783 17.2122C175.719 31.4916 190.382 53.256 195.752 78.0226L99 99H198Z" fill="#76A3D6"/>
<path d="M194.101 71.4886C200.002 91.8884 199.187 113.645 191.777 133.546C184.366 153.448 170.753 170.439 152.946 182.011C135.14 193.583 114.084 199.122 92.8887 197.811C71.693 196.5 51.4805 188.408 35.2357 174.731L99 99L194.101 71.4886Z" fill="#ECECEC"/>
<g filter="url(#filter0_d_197_28)">
<path d="M45 21.492C45 17.9067 47.9065 15.0002 51.4918 15.0002H137.508C141.094 15.0002 144 17.9067 144 21.492V52.2458C144 55.8311 141.094 58.7376 137.508 58.7376H108.643L94.5 69.6719L80.3571 58.7376H51.4918C47.9065 58.7376 45 55.8311 45 52.2458V21.492Z" fill="white"/>
</g>
<path d="M79.0825 41.0002V39.1069C79.0825 38.4224 79.1893 37.8478 79.4028 37.3831C79.6163 36.9121 79.9272 36.5196 80.3354 36.2056C80.7436 35.8916 81.2397 35.6216 81.8237 35.3955L84.2352 34.4535C84.8129 34.2211 85.2431 33.926 85.5257 33.568C85.8083 33.2101 85.9496 32.7674 85.9496 32.2399C85.9496 31.6935 85.758 31.2414 85.375 30.8834C84.9919 30.5255 84.4487 30.3465 83.7453 30.3465C83.0608 30.3465 82.4925 30.5035 82.0404 30.8175C81.5945 31.1252 81.3401 31.5867 81.2774 32.2022H79.2898C79.3212 31.4549 79.5284 30.8269 79.9115 30.3182C80.2946 29.8095 80.8126 29.4265 81.4657 29.169C82.1189 28.9115 82.8693 28.7828 83.7171 28.7828C84.5083 28.7828 85.218 28.9335 85.8459 29.2349C86.4739 29.5364 86.97 29.954 87.3343 30.4878C87.7048 31.0216 87.89 31.637 87.89 32.3341C87.89 32.9558 87.777 33.499 87.5509 33.9637C87.3248 34.4221 86.992 34.8209 86.5524 35.16C86.1128 35.4991 85.579 35.7942 84.9511 36.0454L82.5019 37.0157C81.9493 37.2292 81.538 37.4804 81.2679 37.7693C81.0042 38.0519 80.8723 38.4224 80.8723 38.8808V39.3518H87.7958V41.0002H79.0825ZM90.8625 41.0002V39.1069C90.8625 38.4224 90.9693 37.8478 91.1828 37.3831C91.3963 36.9121 91.7072 36.5196 92.1153 36.2056C92.5235 35.8916 93.0196 35.6216 93.6037 35.3955L96.0151 34.4535C96.5929 34.2211 97.023 33.926 97.3056 33.568C97.5882 33.2101 97.7295 32.7674 97.7295 32.2399C97.7295 31.6935 97.538 31.2414 97.1549 30.8834C96.7719 30.5255 96.2286 30.3465 95.5253 30.3465C94.8408 30.3465 94.2725 30.5035 93.8203 30.8175C93.3745 31.1252 93.1201 31.5867 93.0573 32.2022H91.0698C91.1011 31.4549 91.3084 30.8269 91.6915 30.3182C92.0745 29.8095 92.5926 29.4265 93.2457 29.169C93.8988 28.9115 94.6493 28.7828 95.497 28.7828C96.2883 28.7828 96.9979 28.9335 97.6259 29.2349C98.2539 29.5364 98.75 29.954 99.1142 30.4878C99.4848 31.0216 99.67 31.637 99.67 32.3341C99.67 32.9558 99.557 33.499 99.3309 33.9637C99.1048 34.4221 98.772 34.8209 98.3324 35.16C97.8928 35.4991 97.359 35.7942 96.731 36.0454L94.2819 37.0157C93.7293 37.2292 93.3179 37.4804 93.0479 37.7693C92.7841 38.0519 92.6523 38.4224 92.6523 38.8808V39.3518H99.5758V41.0002H90.8625ZM110.216 28.9994H112.684L104.913 36.978V34.5006L110.216 28.9994ZM107.117 34.0202L113.014 41.0002H110.687L105.855 35.1882L107.117 34.0202ZM103.302 28.9994H105.11V41.0002H103.302V28.9994Z" fill="#232D42"/>
<defs>
<filter id="filter0_d_197_28" x="38.5082" y="11.7543" width="111.984" height="67.6552" filterUnits="userSpaceOnUse" color-interpolation-filters="sRGB">
<feFlood flood-opacity="0" result="BackgroundImageFix"/>
<feColorMatrix in="SourceAlpha" type="matrix" values="0 0 0 0 0 0 0 0 0 0 0 0 0 0 0 0 0 0 127 0" result="hardAlpha"/>
<feOffset dy="3.2459"/>
<feGaussianBlur stdDeviation="3.2459"/>
<feColorMatrix type="matrix" values="0 0 0 0 0 0 0 0 0 0 0 0 0 0 0 0 0 0 0.08 0"/>
<feBlend mode="normal" in2="BackgroundImageFix" result="effect1_dropShadow_197_28"/>
<feBlend mode="normal" in="SourceGraphic" in2="effect1_dropShadow_197_28" result="shape"/>
</filter>
</defs>
</svg>
