<svg width="198" height="198" viewBox="0 0 198 198" fill="none" xmlns="http://www.w3.org/2000/svg">
<path d="M198 99C198 124.342 188.282 148.719 170.847 167.111C153.412 185.502 129.588 196.507 104.282 197.859C78.976 199.211 54.115 190.807 34.8197 174.378C15.5243 157.949 3.26388 134.747 0.563607 109.549C-2.13667 84.351 4.92884 59.0771 20.3049 38.9327C35.6809 18.7883 58.1966 5.30741 83.2144 1.26661C108.232 -2.77419 133.847 2.93284 154.783 17.2122C175.719 31.4916 190.382 53.256 195.752 78.0226L99 99H198Z" fill="#76A3D6"/>
<path d="M194.101 71.4886C200.002 91.8884 199.187 113.645 191.777 133.546C184.366 153.448 170.753 170.439 152.946 182.011C135.14 193.583 114.084 199.122 92.8887 197.811C71.693 196.5 51.4805 188.408 35.2357 174.731L99 99L194.101 71.4886Z" fill="#ECECEC"/>
<g filter="url(#filter0_d_197_28)">
<path d="M45 21.492C45 17.9067 47.9065 15.0002 51.4918 15.0002H137.508C141.094 15.0002 144 17.9067 144 21.492V52.2458C144 55.8311 141.094 58.7376 137.508 58.7376H108.643L94.5 69.6719L80.3571 58.7376H51.4918C47.9065 58.7376 45 55.8311 45 52.2458V21.492Z" fill="white"/>
</g>
<defs>
<filter id="filter0_d_197_28" x="38.5082" y="11.7543" width="111.984" height="67.6552" filterUnits="userSpaceOnUse" color-interpolation-filters="sRGB">
<feFlood flood-opacity="0" result="BackgroundImageFix"/>
<feColorMatrix in="SourceAlpha" type="matrix" values="0 0 0 0 0 0 0 0 0 0 0 0 0 0 0 0 0 0 127 0" result="hardAlpha"/>
<feOffset dy="3.2459"/>
<feGaussianBlur stdDeviation="3.2459"/>
<feColorMatrix type="matrix" values="0 0 0 0 0 0 0 0 0 0 0 0 0 0 0 0 0 0 0.08 0"/>
<feBlend mode="normal" in2="BackgroundImageFix" result="effect1_dropShadow_197_28"/>
<feBlend mode="normal" in="SourceGraphic" in2="effect1_dropShadow_197_28" result="shape"/>
</filter>
</defs>
</svg>
