<svg width="198" height="198" viewBox="0 0 198 198" fill="none" xmlns="http://www.w3.org/2000/svg">
<path d="M99 198C80.3748 198 62.1274 192.746 46.354 182.841C30.5806 172.937 17.9211 158.784 9.82988 142.008C1.73864 125.232 -1.45615 106.514 0.612552 88.0041C2.68125 69.4941 9.92951 51.9432 21.5246 37.3675C33.1198 22.7918 48.5914 11.7826 66.1622 5.60472C83.733 -0.573168 102.69 -1.66917 120.856 2.44263C139.021 6.55442 155.659 15.7072 168.856 28.8495C182.054 41.9918 191.277 58.5905 195.465 76.7388L99 99L99 198Z" fill="#76A3D6"/>
<path d="M194.101 71.4886C199.045 88.5788 199.292 106.685 194.816 123.904C190.341 141.123 181.308 156.818 168.668 169.338C156.028 181.857 140.248 190.74 122.987 195.05C105.726 199.361 87.6225 198.94 70.5803 193.833L99 99L194.101 71.4886Z" fill="#ECECEC"/>
<g filter="url(#filter0_d_197_55)">
<path d="M45 21.492C45 17.9067 47.9065 15.0002 51.4918 15.0002H137.508C141.094 15.0002 144 17.9067 144 21.492V52.2458C144 55.8311 141.094 58.7376 137.508 58.7376H108.643L94.5 69.6719L80.3571 58.7376H51.4918C47.9065 58.7376 45 55.8311 45 52.2458V21.492Z" fill="white"/>
</g>
<path d="M78.6642 41.0002L84.3067 30.7138H78.1273V28.9994H86.4167V30.6856L81.0663 41.0002H78.6642ZM93.15 41.2452C92.1892 41.2452 91.3446 41.0159 90.6161 40.5575C89.8939 40.0991 89.3319 39.4083 88.93 38.4852C88.5281 37.562 88.3271 36.4003 88.3271 34.9998C88.3271 33.6057 88.5281 32.4471 88.93 31.5239C89.3319 30.6008 89.8939 29.9132 90.6161 29.461C91.3446 29.0089 92.1892 28.7828 93.15 28.7828C94.1046 28.7828 94.9429 29.0089 95.6651 29.461C96.3873 29.9132 96.9493 30.6008 97.3513 31.5239C97.7594 32.4471 97.9635 33.6057 97.9635 34.9998C97.9635 36.4003 97.7594 37.562 97.3513 38.4852C96.9493 39.4083 96.3873 40.0991 95.6651 40.5575C94.9429 41.0159 94.1046 41.2452 93.15 41.2452ZM93.15 39.5967C94.1046 39.5967 94.8362 39.2011 95.3448 38.4098C95.8598 37.6123 96.1173 36.4756 96.1173 34.9998C96.1173 33.5304 95.8598 32.3968 95.3448 31.5993C94.8362 30.8018 94.1046 30.403 93.15 30.403C92.1955 30.403 91.4608 30.8018 90.9458 31.5993C90.4371 32.3968 90.1828 33.5304 90.1828 34.9998C90.1828 36.4756 90.4371 37.6123 90.9458 38.4098C91.4608 39.2011 92.1955 39.5967 93.15 39.5967ZM101.596 41.0002L109.697 28.9994H111.534L103.433 41.0002H101.596ZM109.98 41.1981C109.546 41.1981 109.141 41.0944 108.764 40.8872C108.394 40.68 108.092 40.3723 107.86 39.9641C107.628 39.5496 107.512 39.0347 107.512 38.4192C107.512 37.8038 107.628 37.292 107.86 36.8838C108.092 36.4756 108.394 36.1679 108.764 35.9607C109.141 35.7534 109.546 35.6498 109.98 35.6498C110.425 35.6498 110.837 35.7534 111.214 35.9607C111.597 36.1679 111.901 36.4756 112.127 36.8838C112.36 37.292 112.476 37.8038 112.476 38.4192C112.476 39.0347 112.36 39.5496 112.127 39.9641C111.901 40.3723 111.597 40.68 111.214 40.8872C110.837 41.0944 110.425 41.1981 109.98 41.1981ZM109.98 40.0017C110.306 40.0017 110.57 39.8793 110.771 39.6344C110.978 39.3895 111.082 38.9844 111.082 38.4192C111.082 37.8666 110.978 37.4647 110.771 37.2135C110.57 36.956 110.306 36.8273 109.98 36.8273C109.653 36.8273 109.389 36.956 109.188 37.2135C108.987 37.4647 108.887 37.8666 108.887 38.4192C108.887 38.9844 108.987 39.3895 109.188 39.6344C109.389 39.8793 109.653 40.0017 109.98 40.0017ZM103.16 34.3028C102.726 34.3028 102.321 34.1992 101.945 33.9919C101.574 33.7847 101.273 33.477 101.04 33.0688C100.808 32.6543 100.692 32.1425 100.692 31.5334C100.692 30.9242 100.808 30.4156 101.04 30.0074C101.273 29.5992 101.574 29.2946 101.945 29.0936C102.321 28.8864 102.726 28.7828 103.16 28.7828C103.599 28.7828 104.011 28.8864 104.394 29.0936C104.777 29.2946 105.081 29.5992 105.307 30.0074C105.54 30.4156 105.656 30.9242 105.656 31.5334C105.656 32.1425 105.54 32.6543 105.307 33.0688C105.081 33.477 104.777 33.7847 104.394 33.9919C104.011 34.1992 103.599 34.3028 103.16 34.3028ZM103.16 33.1253C103.48 33.1253 103.741 32.9997 103.942 32.7485C104.149 32.4973 104.252 32.0923 104.252 31.5334C104.252 30.9807 104.149 30.5788 103.942 30.3276C103.741 30.0702 103.48 29.9414 103.16 29.9414C102.833 29.9414 102.569 30.0702 102.368 30.3276C102.167 30.5788 102.067 30.9807 102.067 31.5334C102.067 32.0923 102.167 32.4973 102.368 32.7485C102.569 32.9997 102.833 33.1253 103.16 33.1253Z" fill="#232D42"/>
<defs>
<filter id="filter0_d_197_55" x="38.5082" y="11.7543" width="111.984" height="67.6552" filterUnits="userSpaceOnUse" color-interpolation-filters="sRGB">
<feFlood flood-opacity="0" result="BackgroundImageFix"/>
<feColorMatrix in="SourceAlpha" type="matrix" values="0 0 0 0 0 0 0 0 0 0 0 0 0 0 0 0 0 0 127 0" result="hardAlpha"/>
<feOffset dy="3.2459"/>
<feGaussianBlur stdDeviation="3.2459"/>
<feColorMatrix type="matrix" values="0 0 0 0 0 0 0 0 0 0 0 0 0 0 0 0 0 0 0.08 0"/>
<feBlend mode="normal" in2="BackgroundImageFix" result="effect1_dropShadow_197_55"/>
<feBlend mode="normal" in="SourceGraphic" in2="effect1_dropShadow_197_55" result="shape"/>
</filter>
</defs>
</svg>
