<svg width="48" height="48" viewBox="0 0 48 48" fill="none" xmlns="http://www.w3.org/2000/svg">
<path fill-rule="evenodd" clip-rule="evenodd" d="M24 8.196L15.165 13.296L24 18.405L32.835 13.302L24 8.196ZM37.335 10.698L24 3L10.665 10.698L6.37499 8.223C6.11887 8.06293 5.83314 7.95607 5.53483 7.90878C5.23652 7.86149 4.93175 7.87475 4.63868 7.94776C4.3456 8.02077 4.07023 8.15203 3.82897 8.33373C3.5877 8.51543 3.38549 8.74385 3.23439 9.00536C3.08328 9.26687 2.98638 9.55613 2.94944 9.8559C2.91251 10.1557 2.93631 10.4598 3.01941 10.7502C3.10252 11.0405 3.24324 11.3112 3.43319 11.546C3.62313 11.7809 3.85841 11.975 4.12499 12.117L8.41199 14.595V30L21.75 37.701V42.75C21.75 43.3467 21.987 43.919 22.409 44.341C22.831 44.7629 23.4033 45 24 45C24.5967 45 25.169 44.7629 25.591 44.341C26.0129 43.919 26.25 43.3467 26.25 42.75V37.701L39.588 30V14.595L43.878 12.117C44.3798 11.811 44.742 11.3208 44.887 10.7512C45.0321 10.1816 44.9485 9.57791 44.6541 9.06917C44.3598 8.56043 43.878 8.18706 43.312 8.02893C42.7459 7.8708 42.1404 7.94045 41.625 8.223L37.335 10.698ZM35.088 17.193L26.25 22.299V32.505L35.088 27.402V17.193ZM12.912 27.402L21.75 32.502V22.302L12.912 17.19V27.402Z" fill="white"/>
</svg>
