<svg width="93" height="108" viewBox="0 0 93 108" fill="none" xmlns="http://www.w3.org/2000/svg">
<path opacity="0.7" d="M69.7568 15.2194C62.4853 14.7121 51.2257 11.2032 46.5049 9.51215V3.8147e-06C59.6951 7.77882 82.1578 8.45524 91.7404 7.8211C98.3355 67.8533 64.3313 99.49 46.5049 107.804V97.8694C80.1567 81.2971 85.6104 35.8643 84.1307 15.2194C82.3692 15.4308 77.0283 15.7267 69.7568 15.2194Z" fill="white"/>
<path d="M23.2432 15.2194C30.5147 14.7121 41.7743 11.2032 46.4951 9.51215L46.4951 3.8147e-06C33.3049 7.77882 10.8422 8.45524 1.25959 7.8211C-5.3355 67.8533 28.6686 99.49 46.4951 107.804L46.4951 97.8694C12.8433 81.2971 7.38963 35.8643 8.8693 15.2194C10.6308 15.4308 15.9717 15.7267 23.2432 15.2194Z" fill="#466FE7"/>
<path d="M35.5087 33.966C38.1716 31.7297 41.4586 30.368 44.9227 30.066V33.5C44.9227 33.8978 45.0808 34.2794 45.3621 34.5607C45.6434 34.842 46.0249 35 46.4227 35C46.8206 35 47.2021 34.842 47.4834 34.5607C47.7647 34.2794 47.9227 33.8978 47.9227 33.5V30.066C51.9831 30.4266 55.7788 32.2339 58.6183 35.1586C61.4578 38.0833 63.1522 41.9307 63.3927 46H59.9227C59.5249 46 59.1434 46.158 58.8621 46.4393C58.5808 46.7206 58.4227 47.1022 58.4227 47.5C58.4227 47.8978 58.5808 48.2794 58.8621 48.5607C59.1434 48.842 59.5249 49 59.9227 49H63.3107C62.7907 53.624 60.4647 57.496 56.9747 60.336C56.666 60.5874 56.4698 60.9512 56.4293 61.3473C56.3888 61.7433 56.5073 62.1393 56.7587 62.448C57.0102 62.7567 57.3739 62.9529 57.77 62.9934C58.1661 63.0339 58.562 62.9154 58.8707 62.664C63.3227 59.038 66.2107 53.876 66.4107 47.694C66.4241 47.5905 66.4267 47.486 66.4187 47.382L66.4227 47C66.4227 35.954 57.4687 27 46.4227 27C35.3767 27 26.4227 35.954 26.4227 47C26.4227 53.504 29.4687 58.908 33.9627 62.652C34.2695 62.8954 34.6593 63.0092 35.0488 62.9691C35.4383 62.9289 35.7967 62.7381 36.0474 62.4372C36.2981 62.1364 36.4212 61.7495 36.3904 61.3591C36.3597 60.9687 36.1775 60.6058 35.8827 60.348C32.4627 57.496 30.0767 53.614 29.5387 49H32.9227C33.3206 49 33.7021 48.842 33.9834 48.5607C34.2647 48.2794 34.4227 47.8978 34.4227 47.5C34.4227 47.1022 34.2647 46.7206 33.9834 46.4393C33.7021 46.158 33.3206 46 32.9227 46H29.4507C29.6707 42.236 31.1127 38.8 33.3887 36.086L35.8627 38.56C36.1471 38.825 36.5232 38.9692 36.9118 38.9623C37.3004 38.9555 37.6711 38.7981 37.946 38.5232C38.2208 38.2484 38.3782 37.8776 38.3851 37.489C38.3919 37.1004 38.2477 36.7243 37.9827 36.44L35.5087 33.966ZM55.9427 36.268C55.7103 36.089 55.4238 35.9945 55.1305 35.9999C54.8371 36.0054 54.5544 36.1105 54.3287 36.298L53.8927 36.664C52.3202 37.9846 50.7529 39.3112 49.1907 40.644C47.8787 41.764 46.5367 42.924 45.4647 43.87C45.0006 44.2779 44.5412 44.6913 44.0867 45.11C43.7901 45.3757 43.5096 45.6589 43.2467 45.958C42.9365 46.3399 42.7062 46.7801 42.5694 47.2527C42.4326 47.7253 42.3921 48.2205 42.4503 48.7091C42.5085 49.1976 42.6642 49.6694 42.9082 50.0966C43.1522 50.5238 43.4795 50.8977 43.8707 51.196C44.6675 51.8103 45.6723 52.09 46.6718 51.9758C47.6714 51.8615 48.5872 51.3623 49.2247 50.584C49.4007 50.368 49.6347 49.992 49.8747 49.59C50.1307 49.16 50.4447 48.61 50.7927 47.994C51.4867 46.754 52.3287 45.21 53.1427 43.704C54.1095 41.91 55.0688 40.1119 56.0207 38.31L56.2827 37.812C56.4174 37.5559 56.4571 37.2604 56.3949 36.9779C56.3326 36.6953 56.1725 36.4439 55.9427 36.268Z" fill="white"/>
</svg>
