<svg width="94" height="108" viewBox="0 0 94 108" fill="none" xmlns="http://www.w3.org/2000/svg">
<path opacity="0.7" d="M70.2568 15.2194C62.9853 14.7121 51.7257 11.2032 47.0049 9.51215V3.8147e-06C60.1951 7.77882 82.6578 8.45524 92.2404 7.8211C98.8355 67.8533 64.8313 99.49 47.0049 107.804V97.8694C80.6567 81.2971 86.1104 35.8643 84.6307 15.2194C82.8692 15.4308 77.5283 15.7267 70.2568 15.2194Z" fill="white"/>
<path d="M23.7432 15.2194C31.0147 14.7121 42.2743 11.2032 46.9951 9.51215L46.9951 3.8147e-06C33.8049 7.77882 11.3422 8.45524 1.75959 7.8211C-4.8355 67.8533 29.1686 99.49 46.9951 107.804L46.9951 97.8694C13.3433 81.2971 7.88963 35.8643 9.3693 15.2194C11.1308 15.4308 16.4717 15.7267 23.7432 15.2194Z" fill="#466FE7"/>
<path d="M64.9247 28V66L28.9247 62V32L64.9247 28ZM60.9247 48.998L46.9247 49V59.974L60.9247 61.532V48.998ZM32.9247 58.418L42.9247 59.53V49L32.9247 48.998V58.418ZM60.9247 44.998V32.47L46.9247 34.024V45L60.9247 44.998ZM42.9247 34.468L32.9247 35.58V45L42.9247 45.002V34.468Z" fill="white"/>
</svg>
