<svg width="93" height="108" viewBox="0 0 93 108" fill="none" xmlns="http://www.w3.org/2000/svg">
<path opacity="0.7" d="M69.7568 15.2194C62.4853 14.7121 51.2257 11.2032 46.5049 9.51215V3.8147e-06C59.6951 7.77882 82.1578 8.45524 91.7404 7.8211C98.3355 67.8533 64.3313 99.49 46.5049 107.804V97.8694C80.1567 81.2971 85.6104 35.8643 84.1307 15.2194C82.3692 15.4308 77.0283 15.7267 69.7568 15.2194Z" fill="white"/>
<path d="M23.2432 15.2194C30.5147 14.7121 41.7743 11.2032 46.4951 9.51215L46.4951 3.8147e-06C33.3049 7.77882 10.8422 8.45524 1.25959 7.8211C-5.3355 67.8533 28.6686 99.49 46.4951 107.804L46.4951 97.8694C12.8433 81.2971 7.38963 35.8643 8.8693 15.2194C10.6308 15.4308 15.9717 15.7267 23.2432 15.2194Z" fill="#466FE7"/>
<path d="M61.4227 53H52.4227V50H61.4227V53ZM67.4227 65H58.4227V62H67.4227V65ZM64.4227 59H55.4227V56H64.4227V59Z" fill="white"/>
<path d="M47.9272 53C47.9167 51.7343 47.5791 50.4929 46.9473 49.3961C46.3154 48.2994 45.4108 47.3846 44.3212 46.7405L55.4227 27.5L52.8277 26L41.4622 45.689C40.0674 45.3774 38.6167 45.4205 37.2428 45.8143C35.8689 46.2082 34.6156 46.9402 33.5977 47.9435C27.9817 53.36 28.4167 66.023 28.4377 66.56C28.4532 66.9473 28.6181 67.3136 28.8977 67.5821C29.1774 67.8505 29.5501 68.0003 29.9377 68H52.4242C52.739 68 53.0459 67.9009 53.3013 67.7169C53.5567 67.5328 53.7477 67.273 53.8473 66.9743C53.9468 66.6757 53.9499 66.3533 53.856 66.0527C53.7621 65.7522 53.5761 65.4889 53.3242 65.3C48.0142 61.316 47.9272 53.081 47.9272 53ZM40.3177 48.4955C41.5183 48.5087 42.6675 48.9843 43.5264 49.8233C44.3852 50.6623 44.8875 51.8001 44.9287 53C44.9287 53.057 44.9317 53.312 44.9542 53.7035L36.1042 49.7675C36.6872 49.2868 37.3599 48.9268 38.0832 48.7084C38.8066 48.49 39.5662 48.4177 40.3177 48.4955ZM45.5977 65C44.3988 63.7792 43.6345 62.198 43.4227 60.5H40.4227C40.5302 62.0964 41.0288 63.6419 41.8747 65H38.5402C37.9233 63.0533 37.548 61.0382 37.4227 59H34.4227C34.5195 61.0321 34.8542 63.0459 35.4202 65H31.4227C31.4692 62.246 31.8577 56.162 34.1272 52.1705L45.4267 57.1955C45.9696 60.0145 47.1271 62.6791 48.8167 65H45.5977Z" fill="white"/>
</svg>
