<svg width="94" height="108" viewBox="0 0 94 108" fill="none" xmlns="http://www.w3.org/2000/svg">
<path opacity="0.7" d="M70.2568 15.2194C62.9853 14.7121 51.7257 11.2032 47.0049 9.51215V3.8147e-06C60.1951 7.77882 82.6578 8.45524 92.2404 7.8211C98.8355 67.8533 64.8313 99.49 47.0049 107.804V97.8694C80.6567 81.2971 86.1104 35.8643 84.6307 15.2194C82.8692 15.4308 77.5283 15.7267 70.2568 15.2194Z" fill="white"/>
<path d="M23.7432 15.2194C31.0147 14.7121 42.2743 11.2032 46.9951 9.51215L46.9951 3.8147e-06C33.8049 7.77882 11.3422 8.45524 1.75959 7.8211C-4.8355 67.8533 29.1686 99.49 46.9951 107.804L46.9951 97.8694C13.3433 81.2971 7.88963 35.8643 9.3693 15.2194C11.1308 15.4308 16.4717 15.7267 23.7432 15.2194Z" fill="#466FE7"/>
<path d="M30.9227 55H62.9227V33H30.9227V55ZM48.9227 59V63H56.9227V67H36.9227V63H44.9227V59H28.9067C28.6439 58.9984 28.384 58.945 28.1419 58.8427C27.8999 58.7405 27.6803 58.5914 27.496 58.4041C27.3117 58.2168 27.1661 57.9949 27.0678 57.7512C26.9694 57.5075 26.9201 57.2468 26.9227 56.984V31.016C26.9227 29.902 27.8327 29 28.9067 29H64.9387C66.0347 29 66.9227 29.898 66.9227 31.014V56.984C66.9227 58.098 66.0127 59 64.9387 59H48.9227Z" fill="white"/>
</svg>
