<svg width="48" height="48" viewBox="0 0 48 48" fill="none" xmlns="http://www.w3.org/2000/svg">
<path d="M13.086 10.966C15.7488 8.72975 19.0359 7.36801 22.5 7.066V10.5C22.5 10.8978 22.658 11.2794 22.9393 11.5607C23.2206 11.842 23.6022 12 24 12C24.3978 12 24.7794 11.842 25.0607 11.5607C25.342 11.2794 25.5 10.8978 25.5 10.5V7.066C29.5604 7.42664 33.3561 9.23394 36.1956 12.1586C39.0351 15.0833 40.7295 18.9307 40.97 23H37.5C37.1022 23 36.7206 23.158 36.4393 23.4393C36.158 23.7206 36 24.1022 36 24.5C36 24.8978 36.158 25.2794 36.4393 25.5607C36.7206 25.842 37.1022 26 37.5 26H40.888C40.368 30.624 38.042 34.496 34.552 37.336C34.2433 37.5874 34.0471 37.9512 34.0066 38.3473C33.9661 38.7433 34.0846 39.1393 34.336 39.448C34.5874 39.7567 34.9512 39.9529 35.3473 39.9934C35.7433 40.0339 36.1393 39.9154 36.448 39.664C40.9 36.038 43.788 30.876 43.988 24.694C44.0013 24.5905 44.004 24.486 43.996 24.382L44 24C44 12.954 35.046 4 24 4C12.954 4 4 12.954 4 24C4 30.504 7.046 35.908 11.54 39.652C11.8468 39.8954 12.2365 40.0092 12.6261 39.9691C13.0156 39.9289 13.374 39.7381 13.6247 39.4372C13.8754 39.1364 13.9985 38.7495 13.9677 38.3591C13.9369 37.9687 13.7547 37.6058 13.46 37.348C10.04 34.496 7.654 30.614 7.116 26H10.5C10.8978 26 11.2794 25.842 11.5607 25.5607C11.842 25.2794 12 24.8978 12 24.5C12 24.1022 11.842 23.7206 11.5607 23.4393C11.2794 23.158 10.8978 23 10.5 23H7.028C7.248 19.236 8.69 15.8 10.966 13.086L13.44 15.56C13.7243 15.825 14.1004 15.9692 14.489 15.9623C14.8776 15.9555 15.2484 15.7981 15.5232 15.5232C15.7981 15.2484 15.9555 14.8776 15.9623 14.489C15.9692 14.1004 15.825 13.7243 15.56 13.44L13.086 10.966ZM33.52 13.268C33.2875 13.089 33.0011 12.9945 32.7077 12.9999C32.4144 13.0054 32.1316 13.1105 31.906 13.298L31.47 13.664C29.8975 14.9846 28.3302 16.3112 26.768 17.644C25.456 18.764 24.114 19.924 23.042 20.87C22.5778 21.2779 22.1185 21.6913 21.664 22.11C21.3674 22.3757 21.0869 22.6589 20.824 22.958C20.5138 23.3399 20.2835 23.7801 20.1467 24.2527C20.0098 24.7253 19.9693 25.2205 20.0275 25.7091C20.0857 26.1976 20.2414 26.6694 20.4855 27.0966C20.7295 27.5238 21.0568 27.8977 21.448 28.196C22.2448 28.8103 23.2495 29.09 24.2491 28.9758C25.2487 28.8615 26.1644 28.3623 26.802 27.584C26.978 27.368 27.212 26.992 27.452 26.59C27.708 26.16 28.022 25.61 28.37 24.994C29.064 23.754 29.906 22.21 30.72 20.704C31.6867 18.91 32.6461 17.1119 33.598 15.31L33.86 14.812C33.9946 14.5559 34.0343 14.2604 33.9721 13.9779C33.9099 13.6953 33.7498 13.4439 33.52 13.268Z" fill="#466FE7"/>
</svg>
