<svg width="32" height="40" viewBox="0 0 32 40" fill="none" xmlns="http://www.w3.org/2000/svg">
<g id="ssl-icon 1" clip-path="url(#clip0_125_2598)">
<g id="Group 1000006928">
<rect id="Rectangle 916" x="2.99951" y="24" width="25" height="12" fill="white"/>
<path id="Vector" fill-rule="evenodd" clip-rule="evenodd" d="M6.90023 15.3354H29.104C29.6534 15.3372 30.1798 15.5562 30.5683 15.9447C30.9568 16.3332 31.1759 16.8596 31.1776 17.409V19.9416H0.197754V17.409C0.199471 16.8596 0.418487 16.3332 0.806985 15.9447C1.19548 15.5562 1.72191 15.3372 2.27132 15.3354H6.90023ZM31.1776 21.7743V37.9233C31.1767 38.4733 30.9581 39.0006 30.5695 39.3898C30.1809 39.779 29.654 39.9984 29.104 40.0002H2.27132C1.72134 39.9984 1.19443 39.779 0.805839 39.3898C0.417249 39.0006 0.198612 38.4733 0.197754 37.9233L0.197754 21.7743H31.1776ZM4.12028 34.2677L4.52067 31.9175C5.28988 32.1225 6.08145 32.2318 6.87744 32.243C7.4418 32.2497 8.00603 32.2214 8.56689 32.1584V31.4487L7.28434 31.3348C6.12549 31.2306 5.33013 30.9528 4.89827 30.5015C4.46642 30.0501 4.2494 29.3828 4.24723 28.4995C4.24723 27.2842 4.51091 26.4487 5.03825 25.993C5.56559 25.5373 6.46077 25.3094 7.7238 25.3094C8.87286 25.2984 10.0195 25.4174 11.1418 25.6642L10.7837 27.9429C10.0827 27.8181 9.37313 27.7474 8.6613 27.7313C8.20992 27.7263 7.75869 27.7502 7.31038 27.8029V28.4995L8.33578 28.6004C9.57926 28.7241 10.4386 29.0203 10.9139 29.4891C11.1591 29.7492 11.3487 30.0565 11.4713 30.3923C11.5938 30.7281 11.6467 31.0853 11.6268 31.4422C11.6405 31.9586 11.5577 32.4731 11.3827 32.9591C11.26 33.3103 11.0635 33.6311 10.8065 33.8999C10.5357 34.1388 10.2104 34.3075 9.85921 34.3914C9.50858 34.4942 9.14884 34.5629 8.78499 34.5965C8.47575 34.6226 8.06559 34.6323 7.55127 34.6323C6.39606 34.641 5.24371 34.5165 4.11702 34.2612L4.12028 34.2677ZM12.6619 34.2677L13.0591 31.9175C13.8283 32.1223 14.6199 32.2316 15.4159 32.243C15.9802 32.2497 16.5444 32.2215 17.1053 32.1584V31.4487L15.8228 31.3348C14.6639 31.2306 13.8685 30.9528 13.4367 30.5015C13.007 30.0522 12.7856 29.3849 12.7856 28.4995C12.7856 27.2842 13.0493 26.4487 13.5767 25.993C14.104 25.5373 14.9992 25.3094 16.2622 25.3094C17.4113 25.2984 18.5579 25.4174 19.6802 25.6642L19.3254 27.9429C18.6244 27.8174 17.9149 27.7455 17.203 27.728C16.7505 27.723 16.2982 27.7469 15.8488 27.7996V28.4963L16.8742 28.5972C18.1177 28.7209 18.9771 29.0171 19.4523 29.4858C19.6975 29.746 19.8871 30.0533 20.0097 30.3891C20.1322 30.7248 20.1851 31.0821 20.1652 31.439C20.1789 31.9554 20.0961 32.4698 19.9211 32.9559C19.7998 33.3077 19.6032 33.6287 19.3449 33.8966C19.075 34.1369 18.7494 34.3058 18.3976 34.3882C18.0471 34.4916 17.6873 34.5602 17.3234 34.5933C17.0142 34.6193 16.604 34.6291 16.0897 34.6291C14.9356 34.6377 13.7843 34.5132 12.6587 34.258L12.6619 34.2677ZM27.255 34.4272H21.5552V25.5243H24.4067V32.1453H27.255V34.424V34.4272Z" fill="#1AC54E"/>
</g>
<path id="Vector_2" fill-rule="evenodd" clip-rule="evenodd" d="M24.4719 15.3353V13.1771C24.483 10.7356 23.5499 8.38424 21.8678 6.61461C21.0759 5.76695 20.1183 5.09109 19.0544 4.62902C17.9904 4.16694 16.8428 3.92849 15.6829 3.92849C14.5229 3.92849 13.3753 4.16694 12.3114 4.62902C11.2474 5.09109 10.2898 5.76695 9.49798 6.61461C7.81582 8.38424 6.88275 10.7356 6.89381 13.1771V15.3353H2.96803V13.1771C2.96349 9.72397 4.293 6.40255 6.67897 3.90628C7.83373 2.67514 9.22866 1.69385 10.7776 1.02303C12.3265 0.352205 13.9965 0.00610352 15.6845 0.00610352C17.3725 0.00610352 19.0425 0.352205 20.5914 1.02303C22.1403 1.69385 23.5353 2.67514 24.69 3.90628C27.0781 6.4038 28.4079 9.72811 28.401 13.1836V15.3418L24.4719 15.3353Z" fill="#11164C"/>
</g>
<defs>
<clipPath id="clip0_125_2598">
<rect width="30.9798" height="40" fill="white" transform="translate(0.196777)"/>
</clipPath>
</defs>
</svg>
