<svg width="1012" height="132" viewBox="0 0 1012 132" fill="none" xmlns="http://www.w3.org/2000/svg">
<path opacity="0.1" d="M10.4147 15.9149H15.7418V55H8.67892V24.3544C7.62149 24.8333 6.58401 25.2024 5.56648 25.4617C4.54895 25.7211 3.53142 25.8508 2.51389 25.8508V19.0872C3.8706 18.9476 5.1874 18.6383 6.4643 18.1595C7.7412 17.6607 9.058 16.9125 10.4147 15.9149Z" fill="white"/>
<path opacity="0.1" d="M286.612 55V48.3561C286.612 46.1814 286.941 44.3359 287.6 42.8196C288.258 41.3033 289.236 40.0264 290.533 38.9889C291.849 37.9315 293.495 37.0237 295.471 36.2655L303.431 33.2129C305.167 32.5146 306.444 31.6567 307.262 30.6392C308.1 29.6216 308.519 28.3647 308.519 26.8683C308.519 25.372 307.97 24.115 306.873 23.0975C305.795 22.06 304.249 21.5413 302.234 21.5413C300.299 21.5413 298.673 22.0301 297.356 23.0077C296.059 23.9654 295.311 25.372 295.111 27.2275H287.27C287.33 24.5739 288.019 22.3692 289.335 20.6135C290.652 18.8578 292.418 17.551 294.633 16.693C296.847 15.8152 299.341 15.3762 302.114 15.3762C304.728 15.3762 307.092 15.875 309.207 16.8726C311.322 17.8502 312.998 19.2269 314.235 21.0026C315.492 22.7583 316.12 24.8133 316.12 27.1676C316.12 29.1628 315.751 30.9185 315.013 32.4348C314.295 33.9511 313.197 35.2779 311.721 36.4151C310.245 37.5524 308.379 38.5599 306.125 39.4378L298.104 42.5502C296.548 43.1488 295.421 43.8172 294.722 44.5554C294.024 45.2736 293.675 46.2213 293.675 47.3985V48.5357H315.881V55H286.612Z" fill="white"/>
<path opacity="0.1" d="M599.775 55.838C597.72 55.838 595.735 55.5586 593.819 55C591.904 54.4414 590.188 53.6134 588.672 52.516C587.155 51.4187 585.948 50.062 585.051 48.4459C584.173 46.8099 583.734 44.9245 583.734 42.7897H591.156C591.236 44.1464 591.645 45.3235 592.383 46.3211C593.121 47.2987 594.119 48.0569 595.375 48.5956C596.652 49.1143 598.119 49.3737 599.775 49.3737C602.209 49.3737 604.114 48.815 605.491 47.6977C606.868 46.5804 607.556 45.1639 607.556 43.4481C607.556 42.3308 607.277 41.3731 606.718 40.575C606.159 39.757 605.301 39.1385 604.144 38.7195C602.987 38.2806 601.511 38.0611 599.715 38.0611H594.567V32.4947H598.937C601.211 32.4947 602.997 32.0058 604.294 31.0282C605.591 30.0506 606.239 28.7238 606.239 27.0479C606.239 25.5515 605.68 24.3045 604.563 23.307C603.446 22.2894 601.77 21.7807 599.535 21.7807C597.72 21.7807 596.094 22.1498 594.657 22.888C593.241 23.6262 592.333 24.9131 591.934 26.7486H584.512C584.791 24.0951 585.589 21.9303 586.906 20.2544C588.243 18.5785 589.969 17.3514 592.083 16.5733C594.198 15.7753 596.583 15.3762 599.236 15.3762C602.049 15.3762 604.553 15.8351 606.748 16.7529C608.943 17.6707 610.668 18.9476 611.925 20.5836C613.202 22.1997 613.841 24.0751 613.841 26.2099C613.841 28.1851 613.302 29.9109 612.225 31.3873C611.147 32.8438 609.551 33.9312 607.436 34.6494C609.79 35.4475 611.676 36.6346 613.092 38.2108C614.509 39.7869 615.217 41.7522 615.217 44.1065C615.217 46.4009 614.569 48.4359 613.272 50.2116C611.995 51.9674 610.199 53.344 607.885 54.3416C605.571 55.3392 602.867 55.838 599.775 55.838Z" fill="white"/>
<path opacity="0.1" d="M894.248 15.7354H901.072V40.3356H907.835V46.3809H901.072V55H894.069V46.3809H874.376V41.0539L894.248 15.7354ZM894.428 26.2099L882.756 41.0539H894.428V26.2099Z" fill="white"/>
<path opacity="0.7" d="M81.311 43.964C75.1183 43.5319 65.5292 40.5436 61.5088 39.1034V31.0025C72.7421 37.6273 91.8722 38.2033 100.033 37.6633C105.65 88.7891 76.6905 115.732 61.5088 122.813V114.352C90.168 100.238 94.8126 61.546 93.5524 43.964C92.0523 44.144 87.5037 44.396 81.311 43.964Z" fill="white"/>
<path d="M41.6987 43.964C47.8914 43.5319 57.4805 40.5436 61.501 39.1034L61.501 31.0025C50.2677 37.6273 31.1375 38.2033 22.9766 37.6633C17.36 88.7891 46.3192 115.732 61.501 122.813L61.501 114.352C32.8417 100.238 28.1972 61.546 29.4573 43.964C30.9575 44.144 35.506 44.396 41.6987 43.964Z" fill="#466FE7"/>
<path d="M59.7385 53.997V62.5134H54.6287L61.4418 69.3265L68.2549 62.5134H63.1451V53.997H75.0681C75.5198 53.997 75.953 54.1765 76.2725 54.4959C76.5919 54.8153 76.7713 55.2486 76.7713 55.7003V86.3593C76.7713 86.8111 76.5919 87.2443 76.2725 87.5637C75.953 87.8831 75.5198 88.0626 75.0681 88.0626H47.8156C47.3638 88.0626 46.9306 87.8831 46.6112 87.5637C46.2918 87.2443 46.1123 86.8111 46.1123 86.3593V55.7003C46.1123 55.2486 46.2918 54.8153 46.6112 54.4959C46.9306 54.1765 47.3638 53.997 47.8156 53.997H59.7385ZM73.3648 77.8429H49.5189V84.656H73.3648V77.8429ZM69.9582 79.5462V82.9528H66.5517V79.5462H69.9582Z" fill="white"/>
<path opacity="0.7" d="M379.998 43.964C373.805 43.5319 364.216 40.5436 360.196 39.1034V31.0025C371.429 37.6273 390.559 38.2033 398.72 37.6633C404.337 88.7891 375.377 115.732 360.196 122.813V114.352C388.855 100.238 393.499 61.546 392.239 43.964C390.739 44.144 386.191 44.396 379.998 43.964Z" fill="white"/>
<path d="M340.385 43.964C346.578 43.5319 356.167 40.5436 360.188 39.1034L360.188 31.0025C348.954 37.6273 329.824 38.2033 321.663 37.6633C316.047 88.7891 345.006 115.732 360.188 122.813L360.188 114.352C331.528 100.238 326.884 61.546 328.144 43.964C329.644 44.144 334.193 44.396 340.385 43.964Z" fill="#466FE7"/>
<g clip-path="url(#clip0_238_160)">
<path d="M361.262 84.6561H344.229C343.626 84.6561 343.049 84.4168 342.623 83.9909C342.197 83.565 341.958 82.9874 341.958 82.3851V59.6747C341.958 59.0723 342.197 58.4947 342.623 58.0688C343.049 57.6429 343.626 57.4036 344.229 57.4036H376.023C376.626 57.4036 377.203 57.6429 377.629 58.0688C378.055 58.4947 378.294 59.0723 378.294 59.6747V71.45C376.782 69.5233 374.581 68.2577 372.155 67.919C369.729 67.5804 367.266 68.195 365.283 69.6338C363.301 71.0726 361.953 73.2236 361.523 75.6352C361.092 78.0467 361.613 80.5312 362.976 82.5667L361.92 83.8612L361.262 84.6561ZM347.635 64.2167V66.0336H366.939V64.2167H347.635ZM347.635 70.5757H360.126V68.7588H347.635V70.5757ZM347.635 78.5243H358.991V76.7075H347.635V78.5243Z" fill="white"/>
<path d="M378.099 77.3775C378.102 76.1802 377.808 75.0009 377.243 73.9453C376.678 72.8897 375.86 71.991 374.862 71.3296C373.864 70.6682 372.717 70.2649 371.525 70.1559C370.332 70.0469 369.132 70.2355 368.03 70.705C366.929 71.1744 365.961 71.9099 365.214 72.8454C364.467 73.781 363.964 74.8874 363.749 76.0654C363.535 77.2434 363.617 78.4561 363.987 79.5948C364.357 80.7335 365.004 81.7625 365.87 82.5895L363.667 85.2807L364.689 89.3799L368.845 84.3155C370.16 84.7045 371.56 84.7045 372.876 84.3155L377.032 89.3799L378.054 85.2807L375.851 82.5895C376.559 81.9185 377.124 81.1104 377.511 80.2144C377.897 79.3185 378.097 78.3533 378.099 77.3775ZM365.904 77.3775C365.89 76.3932 366.17 75.4272 366.707 74.6023C367.244 73.7773 368.014 73.1307 368.919 72.7447C369.825 72.3586 370.825 72.2506 371.792 72.4343C372.759 72.618 373.649 73.0852 374.35 73.7763C375.051 74.4675 375.53 75.3515 375.727 76.3159C375.924 77.2803 375.83 78.2815 375.457 79.1922C375.083 80.1029 374.447 80.882 373.63 81.4303C372.812 81.9786 371.85 82.2715 370.866 82.2716C369.562 82.2746 368.309 81.7618 367.382 80.8449C366.454 79.928 365.927 78.6816 365.915 77.3775H365.904Z" fill="white"/>
</g>
<path opacity="0.7" d="M678.684 43.964C672.492 43.5319 662.903 40.5436 658.882 39.1034V31.0025C670.115 37.6273 689.246 38.2033 697.406 37.6633C703.023 88.7891 674.064 115.732 658.882 122.813V114.352C687.541 100.238 692.186 61.546 690.926 43.964C689.426 44.144 684.877 44.396 678.684 43.964Z" fill="white"/>
<path d="M639.072 43.964C645.265 43.5319 654.854 40.5436 658.874 39.1034L658.874 31.0025C647.641 37.6273 628.511 38.2033 620.35 37.6633C614.733 88.7891 643.693 115.732 658.874 122.813L658.874 114.352C630.215 100.238 625.57 61.546 626.831 43.964C628.331 44.144 632.879 44.396 639.072 43.964Z" fill="#466FE7"/>
<path d="M645.626 60.2498L658.815 73.4383L661.223 71.0298L648.035 57.8413C651.074 55.3498 654.885 53.9909 658.815 53.997C668.222 53.997 675.848 61.6226 675.848 71.0298C675.848 80.437 668.222 88.0626 658.815 88.0626C649.408 88.0626 641.782 80.437 641.782 71.0298C641.782 66.9402 643.223 63.1862 645.626 60.2498Z" fill="white"/>
<path opacity="0.7" d="M969.871 43.964C963.678 43.532 954.089 40.5436 950.068 39.1035V31.0026C961.302 37.6273 980.432 38.2034 988.593 37.6633C994.209 88.7891 965.25 115.732 950.068 122.813V114.352C978.728 100.238 983.372 61.546 982.112 43.964C980.612 44.1441 976.063 44.3961 969.871 43.964Z" fill="white"/>
<path d="M930.258 43.964C936.451 43.532 946.04 40.5436 950.061 39.1035L950.061 31.0026C938.827 37.6273 919.697 38.2034 911.536 37.6633C905.92 88.7891 934.879 115.732 950.061 122.813L950.061 114.352C921.401 100.238 916.757 61.546 918.017 43.964C919.517 44.1441 924.066 44.3961 930.258 43.964Z" fill="#466FE7"/>
<path d="M963.621 62.5134L965.222 59.0046L968.73 57.4035L965.222 55.8025L963.621 52.2937L962.019 55.8025L958.511 57.4035L962.019 59.0046L963.621 62.5134ZM944.033 62.5134L945.634 59.0046L949.143 57.4035L945.634 55.8025L944.033 52.2937L942.432 55.8025L938.923 57.4035L942.432 59.0046L944.033 62.5134ZM963.621 71.8814L962.019 75.3902L958.511 76.9913L962.019 78.5923L963.621 82.1011L965.222 78.5923L968.73 76.9913L965.222 75.3902L963.621 71.8814ZM960.912 67.3337L953.69 60.1118L932.263 81.539L939.485 88.7609L960.912 67.3337ZM953.759 69.6842L951.357 67.2826L953.707 64.932L956.109 67.3337L953.759 69.6842Z" fill="white"/>
<path opacity="0.2" d="M228.021 72.0047L227.224 71.4005L228.021 72.0047ZM208.019 87.5044L207.439 88.3189L208.019 87.5044ZM305.026 94.0046L293.503 93.2407L298.603 103.601L305.026 94.0046ZM120.672 88.4442C121.996 88.9264 123.318 89.3993 124.635 89.8616L125.297 87.9744C123.988 87.5147 122.674 87.0445 121.356 86.5647L120.672 88.4442ZM132.621 92.5436C135.332 93.4097 138.025 94.221 140.698 94.9681L141.236 93.0417C138.59 92.302 135.92 91.4978 133.229 90.6383L132.621 92.5436ZM148.878 97.0582C151.665 97.6991 154.429 98.2566 157.165 98.7192L157.499 96.7471C154.804 96.2916 152.079 95.7419 149.326 95.1089L148.878 97.0582ZM165.553 99.8355C168.41 100.107 171.236 100.256 174.026 100.269L174.036 98.2693C171.31 98.2561 168.545 98.1101 165.741 97.8443L165.553 99.8355ZM182.514 99.8648C185.356 99.5706 188.157 99.1112 190.912 98.4702L190.459 96.5221C187.79 97.1431 185.072 97.5892 182.308 97.8753L182.514 99.8648ZM199.064 95.9763C201.689 94.9683 204.264 93.7682 206.787 92.3609L205.812 90.6142C203.373 91.9748 200.884 93.1348 198.347 94.1091L199.064 95.9763ZM213.924 87.7064C216.129 86.0466 218.287 84.2035 220.394 82.1663L219.004 80.7282C216.954 82.7102 214.859 84.4995 212.721 86.1083L213.924 87.7064ZM226.176 75.9308C227.067 74.8638 227.947 73.7568 228.818 72.609L227.224 71.4005C226.372 72.524 225.511 73.6065 224.64 74.6488L226.176 75.9308ZM228.818 72.609C229.683 71.4682 230.447 70.3541 231.114 69.2666L229.409 68.2203C228.779 69.2473 228.053 70.3074 227.224 71.4005L228.818 72.609ZM234.326 61.8698C235.047 58.8671 234.933 56.1276 234.126 53.6775L232.226 54.3028C232.906 56.3681 233.024 58.7271 232.381 61.4028L234.326 61.8698ZM229.428 46.9282C227.469 45.2531 225.086 43.8921 222.459 42.8334L221.712 44.6885C224.182 45.6844 226.368 46.9426 228.129 48.4484L229.428 46.9282ZM214.775 40.6758C212.187 40.2178 209.51 39.9815 206.85 39.9671L206.839 41.9672C209.389 41.981 211.954 42.2077 214.426 42.6453L214.775 40.6758ZM198.912 40.6093C196.168 41.0849 193.557 41.8275 191.222 42.8459L192.022 44.6792C194.187 43.735 196.64 43.0331 199.253 42.58L198.912 40.6093ZM184.496 47.4523C182.6 49.5378 181.4 52.0757 181.205 55.0478L183.201 55.1788C183.364 52.7008 184.355 50.5813 185.976 48.7975L184.496 47.4523ZM182.839 63.0245C183.792 65.1769 185.174 67.4601 187.028 69.8749L188.614 68.6567C186.837 66.3417 185.545 64.1943 184.668 62.2144L182.839 63.0245ZM192.233 75.7471C193.94 77.4559 195.867 79.2249 198.03 81.0543L199.322 79.5273C197.197 77.7297 195.311 75.9984 193.648 74.3335L192.233 75.7471ZM204.16 85.9235C205.211 86.7117 206.304 87.5102 207.439 88.3189L208.6 86.69C207.477 85.8902 206.398 85.1013 205.36 84.3232L204.16 85.9235ZM207.439 88.3189C208.504 89.0775 209.558 89.8128 210.603 90.5255L211.73 88.8733C210.697 88.1683 209.654 87.4408 208.6 86.69L207.439 88.3189ZM216.972 94.6707C219.205 96.0528 221.39 97.3286 223.527 98.5042L224.491 96.7516C222.385 95.5931 220.23 94.3347 218.025 92.9699L216.972 94.6707ZM230.292 101.973C232.699 103.115 235.041 104.126 237.319 105.017L238.048 103.154C235.815 102.281 233.516 101.289 231.15 100.166L230.292 101.973ZM244.507 107.5C247.082 108.27 249.567 108.881 251.963 109.35L252.347 107.387C250.016 106.931 247.595 106.336 245.08 105.584L244.507 107.5ZM259.559 110.406C262.246 110.623 264.805 110.657 267.238 110.542L267.143 108.544C264.796 108.655 262.323 108.622 259.72 108.412L259.559 110.406ZM274.872 109.648C277.539 109.144 280.018 108.465 282.317 107.675L281.667 105.784C279.453 106.544 277.067 107.197 274.5 107.683L274.872 109.648ZM289.397 104.677C291.902 103.411 294.108 102.074 296.031 100.808L294.932 99.1371C293.055 100.372 290.915 101.669 288.494 102.892L289.397 104.677Z" fill="white"/>
<path opacity="0.2" d="M593.045 84.1069L585.573 75.3025L581.684 86.1758L593.045 84.1069ZM486.038 99.6066L486.834 100.211L486.038 99.6066ZM506.039 84.1069L506.619 83.2925L506.039 84.1069ZM581.438 79.0678C578.726 78.2017 576.033 77.3903 573.36 76.6433L572.822 78.5696C575.469 79.3094 578.138 80.1136 580.829 80.9731L581.438 79.0678ZM565.181 74.5532C562.393 73.9123 559.63 73.3547 556.893 72.8922L556.56 74.8643C559.254 75.3198 561.979 75.8695 564.732 76.5025L565.181 74.5532ZM548.506 71.7759C545.648 71.5049 542.823 71.3554 540.032 71.342L540.023 73.3421C542.748 73.3552 545.514 73.5012 548.317 73.7671L548.506 71.7759ZM531.545 71.7466C528.702 72.0408 525.902 72.5002 523.146 73.1411L523.6 75.0893C526.269 74.4683 528.987 74.0222 531.751 73.7361L531.545 71.7466ZM514.994 75.6351C512.37 76.6431 509.794 77.8432 507.272 79.2505L508.246 80.9972C510.685 79.6366 513.174 78.4766 515.711 77.5022L514.994 75.6351ZM500.134 83.905C497.929 85.5648 495.772 87.4079 493.664 89.4451L495.054 90.8831C497.105 88.9012 499.2 87.1118 501.337 85.5031L500.134 83.905ZM487.883 95.6806C486.992 96.7476 486.111 97.8545 485.241 99.0024L486.834 100.211C487.686 99.0873 488.548 98.0049 489.418 96.9626L487.883 95.6806ZM485.241 99.0024C484.376 100.143 483.612 101.257 482.944 102.345L484.649 103.391C485.279 102.364 486.006 101.304 486.834 100.211L485.241 99.0024ZM479.732 109.742C479.011 112.744 479.126 115.484 479.932 117.934L481.832 117.309C481.152 115.243 481.035 112.884 481.677 110.209L479.732 109.742ZM484.63 124.683C486.589 126.358 488.973 127.719 491.599 128.778L492.347 126.923C489.876 125.927 487.691 124.669 485.93 123.163L484.63 124.683ZM499.284 130.936C501.871 131.394 504.549 131.63 507.209 131.644L507.22 129.644C504.669 129.63 502.105 129.404 499.632 128.966L499.284 130.936ZM515.147 131.002C517.89 130.526 520.501 129.784 522.836 128.765L522.037 126.932C519.872 127.876 517.418 128.578 514.805 129.031L515.147 131.002ZM529.563 124.159C531.458 122.074 532.658 119.536 532.853 116.564L530.857 116.433C530.695 118.911 529.704 121.03 528.083 122.814L529.563 124.159ZM531.219 108.587C530.266 106.434 528.885 104.151 527.03 101.737L525.444 102.955C527.222 105.27 528.514 107.417 529.391 109.397L531.219 108.587ZM521.825 95.8643C520.118 94.1555 518.191 92.3865 516.028 90.5571L514.736 92.0841C516.861 93.8817 518.747 95.613 520.41 97.2779L521.825 95.8643ZM509.898 85.6879C508.847 84.8997 507.754 84.1012 506.619 83.2925L505.459 84.9214C506.581 85.7211 507.66 86.51 508.698 87.2881L509.898 85.6879ZM506.619 83.2925C505.555 82.5339 504.5 81.7986 503.455 81.0859L502.328 82.7381C503.361 83.443 504.405 84.1706 505.459 84.9214L506.619 83.2925ZM497.086 76.9407C494.853 75.5586 492.668 74.2828 490.531 73.1072L489.567 74.8597C491.673 76.0183 493.829 77.2767 496.034 78.6414L497.086 76.9407ZM483.766 69.6389C481.359 68.4965 479.017 67.485 476.739 66.5944L476.011 68.4572C478.244 69.3301 480.542 70.3228 482.909 71.4458L483.766 69.6389ZM469.551 64.1109C466.976 63.3411 464.492 62.7305 462.095 62.2616L461.711 64.2245C464.042 64.6805 466.464 65.2754 468.978 66.0272L469.551 64.1109ZM454.499 61.2054C451.812 60.9886 449.253 60.954 446.82 61.0696L446.915 63.0675C449.263 62.956 451.736 62.9891 454.339 63.199L454.499 61.2054ZM439.186 61.9632C436.52 62.4677 434.041 63.146 431.741 63.936L432.391 65.8276C434.605 65.067 436.991 64.4141 439.558 63.9284L439.186 61.9632ZM424.662 66.9339C422.157 68.2001 419.951 69.5378 418.027 70.8033L419.126 72.4742C421.004 71.239 423.143 69.9427 425.564 68.719L424.662 66.9339ZM411.819 75.1321C411.086 75.6338 410.482 76.0167 409.984 76.2724C409.463 76.5394 409.17 76.6068 409.032 76.6068L409.032 78.6069C409.66 78.6069 410.302 78.3566 410.896 78.0523C411.512 77.7367 412.201 77.2948 412.949 76.7821L411.819 75.1321Z" fill="white"/>
<path opacity="0.2" d="M826.057 72.0047L825.26 71.4005L826.057 72.0047ZM806.056 87.5044L805.476 88.3189L806.056 87.5044ZM903.062 94.0046L891.54 93.2407L896.64 103.601L903.062 94.0046ZM718.708 88.4442C720.033 88.9264 721.354 89.3993 722.671 89.8616L723.334 87.9744C722.024 87.5147 720.71 87.0445 719.392 86.5647L718.708 88.4442ZM730.657 92.5436C733.369 93.4097 736.062 94.221 738.734 94.9681L739.273 93.0417C736.626 92.302 733.956 91.4978 731.266 90.6383L730.657 92.5436ZM746.914 97.0582C749.702 97.6991 752.465 98.2566 755.202 98.7192L755.535 96.7471C752.84 96.2916 750.116 95.7419 747.362 95.1089L746.914 97.0582ZM763.589 99.8355C766.447 100.107 769.272 100.256 772.062 100.269L772.072 98.2693C769.346 98.2561 766.581 98.1101 763.778 97.8443L763.589 99.8355ZM780.55 99.8648C783.392 99.5706 786.193 99.1112 788.948 98.4702L788.495 96.5221C785.826 97.1431 783.108 97.5892 780.344 97.8753L780.55 99.8648ZM797.1 95.9763C799.725 94.9683 802.3 93.7682 804.823 92.3609L803.849 90.6142C801.41 91.9748 798.92 93.1348 796.383 94.1091L797.1 95.9763ZM811.96 87.7064C814.166 86.0466 816.323 84.2035 818.43 82.1663L817.04 80.7282C814.99 82.7102 812.895 84.4995 810.758 86.1083L811.96 87.7064ZM824.212 75.9308C825.103 74.8638 825.984 73.7568 826.854 72.609L825.26 71.4005C824.408 72.524 823.547 73.6065 822.677 74.6488L824.212 75.9308ZM826.854 72.609C827.719 71.4682 828.483 70.3541 829.15 69.2666L827.446 68.2203C826.815 69.2473 826.089 70.3074 825.26 71.4005L826.854 72.609ZM832.362 61.8698C833.083 58.8671 832.969 56.1276 832.163 53.6775L830.263 54.3028C830.942 56.3681 831.06 58.7271 830.417 61.4028L832.362 61.8698ZM827.465 46.9282C825.506 45.2531 823.122 43.8921 820.496 42.8334L819.748 44.6885C822.219 45.6844 824.404 46.9426 826.165 48.4484L827.465 46.9282ZM812.811 40.6758C810.223 40.2178 807.546 39.9815 804.886 39.9671L804.875 41.9672C807.426 41.981 809.99 42.2077 812.462 42.6453L812.811 40.6758ZM796.948 40.6093C794.205 41.0849 791.593 41.8275 789.258 42.8459L790.058 44.6792C792.223 43.735 794.676 43.0331 797.29 42.58L796.948 40.6093ZM782.532 47.4523C780.637 49.5378 779.437 52.0757 779.242 55.0478L781.237 55.1788C781.4 52.7008 782.391 50.5813 784.012 48.7975L782.532 47.4523ZM780.875 63.0245C781.829 65.1769 783.21 67.4601 785.064 69.8749L786.651 68.6567C784.873 66.3417 783.581 64.1943 782.704 62.2144L780.875 63.0245ZM790.269 75.7471C791.976 77.4559 793.904 79.2249 796.066 81.0543L797.358 79.5273C795.233 77.7297 793.348 75.9984 791.684 74.3335L790.269 75.7471ZM802.197 85.9235C803.248 86.7117 804.34 87.5102 805.476 88.3189L806.636 86.69C805.514 85.8902 804.434 85.1013 803.397 84.3232L802.197 85.9235ZM805.476 88.3189C806.54 89.0775 807.595 89.8128 808.639 90.5255L809.767 88.8733C808.733 88.1683 807.69 87.4408 806.636 86.69L805.476 88.3189ZM815.008 94.6707C817.241 96.0528 819.426 97.3286 821.564 98.5042L822.528 96.7516C820.421 95.5931 818.266 94.3347 816.061 92.9699L815.008 94.6707ZM828.328 101.973C830.736 103.115 833.078 104.126 835.356 105.017L836.084 103.154C833.851 102.281 831.552 101.289 829.186 100.166L828.328 101.973ZM842.544 107.5C845.119 108.27 847.603 108.881 850 109.35L850.384 107.387C848.053 106.931 845.631 106.336 843.116 105.584L842.544 107.5ZM857.595 110.406C860.283 110.623 862.841 110.657 865.275 110.542L865.18 108.544C862.832 108.655 860.359 108.622 857.756 108.412L857.595 110.406ZM872.908 109.648C875.575 109.144 878.054 108.465 880.353 107.675L879.704 105.784C877.49 106.544 875.103 107.197 872.536 107.683L872.908 109.648ZM887.433 104.677C889.938 103.411 892.144 102.074 894.068 100.808L892.968 99.1371C891.091 100.372 888.952 101.669 886.531 102.892L887.433 104.677Z" fill="white"/>
<defs>
<clipPath id="clip0_238_160">
<rect width="40.8787" height="40.8787" fill="white" transform="translate(339.685 50.5903)"/>
</clipPath>
</defs>
</svg>
