<svg width="117" height="123" viewBox="0 0 117 123" fill="none" xmlns="http://www.w3.org/2000/svg">
<path opacity="0.1" d="M21.1885 15.7354H28.012V40.3356H34.7755V46.3809H28.012V55H21.009V46.3809H1.3168V41.0539L21.1885 15.7354ZM21.3681 26.2099L9.69645 41.0539H21.3681V26.2099Z" fill="white"/>
<path opacity="0.7" d="M96.811 43.964C90.6183 43.532 81.0292 40.5436 77.0088 39.1035V31.0026C88.2421 37.6273 107.372 38.2034 115.533 37.6633C121.15 88.7891 92.1905 115.732 77.0088 122.813V114.352C105.668 100.238 110.313 61.546 109.052 43.964C107.552 44.1441 103.004 44.3961 96.811 43.964Z" fill="white"/>
<path d="M57.1987 43.964C63.3914 43.532 72.9805 40.5436 77.001 39.1035L77.001 31.0026C65.7677 37.6273 46.6375 38.2034 38.4766 37.6633C32.86 88.7891 61.8192 115.732 77.001 122.813L77.001 114.352C48.3417 100.238 43.6972 61.546 44.9573 43.964C46.4575 44.1441 51.006 44.3961 57.1987 43.964Z" fill="#466FE7"/>
<path d="M90.561 62.5134L92.1621 59.0046L95.6708 57.4035L92.1621 55.8025L90.561 52.2937L88.9599 55.8025L85.4512 57.4035L88.9599 59.0046L90.561 62.5134ZM70.9733 62.5134L72.5744 59.0046L76.0831 57.4035L72.5744 55.8025L70.9733 52.2937L69.3722 55.8025L65.8634 57.4035L69.3722 59.0046L70.9733 62.5134ZM90.561 71.8814L88.9599 75.3902L85.4512 76.9913L88.9599 78.5923L90.561 82.1011L92.1621 78.5923L95.6708 76.9913L92.1621 75.3902L90.561 71.8814ZM87.8528 67.3337L80.6309 60.1118L59.2036 81.539L66.4255 88.7609L87.8528 67.3337ZM80.699 69.6842L78.2974 67.2826L80.6479 64.932L83.0495 67.3337L80.699 69.6842Z" fill="white"/>
</svg>
