<svg width="118" height="123" viewBox="0 0 118 123" fill="none" xmlns="http://www.w3.org/2000/svg">
<path opacity="0.1" d="M18.7748 55.838C16.7198 55.838 14.7346 55.5586 12.8192 55C10.9039 54.4414 9.18807 53.6134 7.67175 52.516C6.15543 51.4187 4.94836 50.062 4.05054 48.4459C3.17268 46.8099 2.73374 44.9245 2.73374 42.7897H10.1557C10.2355 44.1464 10.6445 45.3235 11.3827 46.3211C12.1209 47.2987 13.1185 48.0569 14.3755 48.5956C15.6524 49.1143 17.1188 49.3737 18.7748 49.3737C21.2089 49.3737 23.1142 48.815 24.4909 47.6977C25.8676 46.5804 26.5559 45.1639 26.5559 43.4481C26.5559 42.3308 26.2766 41.3731 25.7179 40.575C25.1593 39.757 24.3014 39.1385 23.1442 38.7195C21.987 38.2806 20.5106 38.0611 18.7149 38.0611H13.5674V32.4947H17.9368C20.2113 32.4947 21.997 32.0058 23.2938 31.0282C24.5907 30.0506 25.2391 28.7238 25.2391 27.0479C25.2391 25.5515 24.6804 24.3045 23.5632 23.307C22.4459 22.2894 20.7699 21.7807 18.5354 21.7807C16.7198 21.7807 15.0937 22.1498 13.6572 22.888C12.2407 23.6262 11.3329 24.9131 10.9338 26.7486H3.51185C3.79117 24.0951 4.58924 21.9303 5.90604 20.2544C7.24279 18.5785 8.9686 17.3514 11.0835 16.5733C13.1983 15.7753 15.5825 15.3762 18.2361 15.3762C21.0493 15.3762 23.5532 15.8351 25.7478 16.7529C27.9425 17.6707 29.6683 18.9476 30.9253 20.5836C32.2022 22.1997 32.8406 24.0751 32.8406 26.2099C32.8406 28.1851 32.3019 29.9109 31.2245 31.3873C30.1472 32.8438 28.551 33.9312 26.4362 34.6494C28.7905 35.4475 30.6759 36.6346 32.0924 38.2108C33.509 39.7869 34.2173 41.7522 34.2173 44.1065C34.2173 46.4009 33.5689 48.4359 32.272 50.2116C30.9951 51.9674 29.1995 53.344 26.8851 54.3416C24.5707 55.3392 21.8673 55.838 18.7748 55.838Z" fill="white"/>
<path opacity="0.7" d="M97.6843 43.9639C91.4916 43.5319 81.9025 40.5435 77.8821 39.1034V31.0024C89.1154 37.6272 108.246 38.2033 116.406 37.6632C122.023 88.789 93.0638 115.732 77.8821 122.813V114.352C106.541 100.238 111.186 61.5459 109.926 43.9639C108.426 44.1439 103.877 44.396 97.6843 43.9639Z" fill="white"/>
<path d="M58.072 43.9639C64.2647 43.5319 73.8538 40.5435 77.8743 39.1034L77.8743 31.0024C66.641 37.6272 47.5108 38.2033 39.3499 37.6632C33.7333 88.789 62.6925 115.732 77.8743 122.813L77.8743 114.352C49.215 100.238 44.5705 61.5459 45.8306 43.9639C47.3308 44.1439 51.8793 44.396 58.072 43.9639Z" fill="#466FE7"/>
<path d="M64.6263 60.2496L77.8148 73.4381L80.2232 71.0296L67.0347 57.8411C70.0742 55.3496 73.8846 53.9908 77.8148 53.9968C87.222 53.9968 94.8476 61.6224 94.8476 71.0296C94.8476 80.4369 87.222 88.0624 77.8148 88.0624C68.4076 88.0624 60.782 80.4369 60.782 71.0296C60.782 66.9401 62.223 63.186 64.6263 60.2496Z" fill="white"/>
</svg>
