<svg width="118" height="123" viewBox="0 0 118 123" fill="none" xmlns="http://www.w3.org/2000/svg">
<path opacity="0.1" d="M3.61203 55V48.3561C3.61203 46.1814 3.94123 44.3359 4.59963 42.8196C5.25803 41.3033 6.23566 40.0264 7.53251 38.9889C8.84931 37.9315 10.4953 37.0237 12.4705 36.2655L20.4312 33.2129C22.167 32.5146 23.4439 31.6567 24.2619 30.6392C25.0998 29.6216 25.5188 28.3647 25.5188 26.8683C25.5188 25.372 24.9702 24.115 23.8728 23.0975C22.7954 22.06 21.2492 21.5413 19.2341 21.5413C17.2988 21.5413 15.6727 22.0301 14.3559 23.0077C13.0591 23.9654 12.3109 25.372 12.1114 27.2275H4.27043C4.33029 24.5739 5.01861 22.3692 6.33542 20.6135C7.65222 18.8578 9.41793 17.551 11.6326 16.693C13.8472 15.8152 16.3411 15.3762 19.1144 15.3762C21.728 15.3762 24.0923 15.875 26.2072 16.8726C28.322 17.8502 29.9979 19.2269 31.2349 21.0026C32.4919 22.7583 33.1204 24.8133 33.1204 27.1676C33.1204 29.1628 32.7513 30.9185 32.0131 32.4348C31.2948 33.9511 30.1975 35.2779 28.721 36.4151C27.2446 37.5524 25.3792 38.5599 23.1246 39.4378L15.1041 42.5502C13.5479 43.1488 12.4206 43.8172 11.7223 44.5554C11.024 45.2736 10.6749 46.2213 10.6749 47.3985V48.5357H32.8809V55H3.61203Z" fill="white"/>
<path opacity="0.7" d="M96.9978 43.9639C90.8051 43.5319 81.216 40.5435 77.1956 39.1034V31.0024C88.4288 37.6272 107.559 38.2033 115.72 37.6632C121.337 88.789 92.3773 115.732 77.1956 122.813V114.352C105.855 100.238 110.499 61.5459 109.239 43.9639C107.739 44.1439 103.191 44.396 96.9978 43.9639Z" fill="white"/>
<path d="M57.3855 43.9639C63.5782 43.5319 73.1673 40.5435 77.1877 39.1034L77.1877 31.0024C65.9545 37.6272 46.8243 38.2033 38.6634 37.6632C33.0467 88.789 62.006 115.732 77.1877 122.813L77.1877 114.352C48.5285 100.238 43.884 61.5459 45.1441 43.9639C46.6443 44.1439 51.1928 44.396 57.3855 43.9639Z" fill="#466FE7"/>
<g clip-path="url(#clip0_242_167)">
<path d="M78.2616 84.656H61.2288C60.6265 84.656 60.0488 84.4168 59.6229 83.9909C59.197 83.565 58.9578 82.9873 58.9578 82.385V59.6746C58.9578 59.0723 59.197 58.4946 59.6229 58.0687C60.0488 57.6428 60.6265 57.4036 61.2288 57.4036H93.0234C93.6257 57.4036 94.2033 57.6428 94.6292 58.0687C95.0551 58.4946 95.2944 59.0723 95.2944 59.6746V71.4499C93.7816 69.5232 91.5811 68.2576 89.155 67.919C86.7289 67.5803 84.266 68.1949 82.2834 69.6337C80.3008 71.0725 78.9529 73.2235 78.5227 75.6351C78.0925 78.0467 78.6135 80.5311 79.9762 82.5667L78.9202 83.8612L78.2616 84.656ZM64.6354 64.2167V66.0335H83.9392V64.2167H64.6354ZM64.6354 70.5756H77.1261V68.7588H64.6354V70.5756ZM64.6354 78.5242H75.9906V76.7074H64.6354V78.5242Z" fill="white"/>
<path d="M95.0993 77.3773C95.1024 76.1801 94.8081 75.0007 94.2431 73.9452C93.678 72.8896 92.8597 71.9908 91.8617 71.3295C90.8636 70.6681 89.717 70.2648 88.5247 70.1558C87.3324 70.0468 86.1316 70.2354 85.0302 70.7048C83.9287 71.1743 82.9611 71.9097 82.2139 72.8453C81.4668 73.7809 80.9636 74.8873 80.7494 76.0653C80.5353 77.2433 80.6169 78.456 80.987 79.5947C81.3571 80.7334 82.004 81.7624 82.8698 82.5894L80.6669 85.2806L81.6888 89.3798L85.8448 84.3154C87.1604 84.7044 88.5604 84.7044 89.8759 84.3154L94.0319 89.3798L95.0539 85.2806L92.851 82.5894C93.5594 81.9183 94.124 81.1103 94.5105 80.2143C94.897 79.3183 95.0973 78.3531 95.0993 77.3773ZM82.9038 77.3773C82.8903 76.3931 83.1698 75.4271 83.7068 74.6022C84.2438 73.7772 85.014 73.1306 85.9194 72.7446C86.8249 72.3585 87.8247 72.2505 88.7917 72.4342C89.7587 72.6179 90.6493 73.085 91.3501 73.7762C92.0509 74.4674 92.5303 75.3514 92.7273 76.3158C92.9244 77.2802 92.8302 78.2814 92.4567 79.1921C92.0832 80.1028 91.4473 80.8819 90.6299 81.4302C89.8124 81.9785 88.8504 82.2713 87.866 82.2714C86.5619 82.2745 85.3094 81.7616 84.3819 80.8448C83.4544 79.9279 82.9272 78.6815 82.9152 77.3773H82.9038Z" fill="white"/>
</g>
<defs>
<clipPath id="clip0_242_167">
<rect width="40.8787" height="40.8787" fill="white" transform="translate(56.6853 50.5902)"/>
</clipPath>
</defs>
</svg>
