<svg width="117" height="123" viewBox="0 0 117 123" fill="none" xmlns="http://www.w3.org/2000/svg">
<path opacity="0.1" d="M20.4147 15.9149H25.7418V55H18.6789V24.3544C17.6215 24.8333 16.584 25.2024 15.5665 25.4617C14.549 25.7211 13.5314 25.8508 12.5139 25.8508V19.0872C13.8706 18.9476 15.1874 18.6383 16.4643 18.1595C17.7412 17.6607 19.058 16.9125 20.4147 15.9149Z" fill="white"/>
<path opacity="0.7" d="M97.0471 43.9615C90.8544 43.5294 81.2653 40.5411 77.2449 39.1009V31C88.4781 37.6248 107.608 38.2008 115.769 37.6608C121.386 88.7866 92.4266 115.73 77.2449 122.81V114.349C105.904 100.236 110.549 61.5435 109.289 43.9615C107.788 44.1415 103.24 44.3935 97.0471 43.9615Z" fill="white"/>
<path d="M57.4348 43.9615C63.6275 43.5294 73.2166 40.5411 77.2371 39.1009L77.2371 31C66.0038 37.6248 46.8736 38.2008 38.7127 37.6608C33.096 88.7866 62.0553 115.73 77.2371 122.81L77.2371 114.349C48.5778 100.236 43.9333 61.5435 45.1934 43.9615C46.6936 44.1415 51.2421 44.3935 57.4348 43.9615Z" fill="#466FE7"/>
<path d="M75.4746 53.9944V62.5108H70.3648L77.1779 69.3239L83.991 62.5108H78.8812V53.9944H90.8041C91.2559 53.9944 91.6891 54.1738 92.0085 54.4933C92.328 54.8127 92.5074 55.2459 92.5074 55.6977V86.3567C92.5074 86.8084 92.328 87.2417 92.0085 87.5611C91.6891 87.8805 91.2559 88.06 90.8041 88.06H63.5517C63.0999 88.06 62.6667 87.8805 62.3473 87.5611C62.0278 87.2417 61.8484 86.8084 61.8484 86.3567V55.6977C61.8484 55.2459 62.0278 54.8127 62.3473 54.4933C62.6667 54.1738 63.0999 53.9944 63.5517 53.9944H75.4746ZM89.1009 77.8403H65.2549V84.6534H89.1009V77.8403ZM85.6943 79.5436V82.9501H82.2877V79.5436H85.6943Z" fill="white"/>
</svg>
