<svg width="48" height="48" viewBox="0 0 48 48" fill="none" xmlns="http://www.w3.org/2000/svg">
<path d="M34 2H6C4.93913 2 3.92172 2.42143 3.17157 3.17157C2.42143 3.92172 2 4.93913 2 6V24H6V6H34V2Z" fill="white"/>
<path d="M42 10H14C12.9391 10 11.9217 10.4214 11.1716 11.1716C10.4214 11.9217 10 12.9391 10 14V34C10 35.0609 10.4214 36.0783 11.1716 36.8284C11.9217 37.5786 12.9391 38 14 38H25.06V41.06H22V44H34V41.04H30.96V38H42C43.0609 38 44.0783 37.5786 44.8284 36.8284C45.5786 36.0783 46 35.0609 46 34V14C46 12.9391 45.5786 11.9217 44.8284 11.1716C44.0783 10.4214 43.0609 10 42 10ZM42 34H14V14H42V34Z" fill="white"/>
</svg>
