<svg width="82" height="20" viewBox="0 0 82 20" fill="none" xmlns="http://www.w3.org/2000/svg">
<g clip-path="url(#clip0_125_1244)">
<path d="M21.4018 7.08862H29.6476V8.62708H26.4054V17.2755H24.6225V8.62708H21.3946V7.08862H21.4018ZM29.2954 9.89955H30.8195V11.323H30.8482C30.8985 11.1217 30.992 10.9276 31.1286 10.7407C31.2652 10.5538 31.4305 10.374 31.6246 10.2231C31.8187 10.0649 32.0344 9.94268 32.2717 9.84204C32.5089 9.74858 32.7533 9.69826 32.9978 9.69826C33.1847 9.69826 33.3213 9.70545 33.3932 9.71263C33.465 9.71982 33.5369 9.7342 33.616 9.74139V11.3086C33.501 11.287 33.386 11.2727 33.2638 11.2583C33.1415 11.2439 33.0265 11.2367 32.9115 11.2367C32.6383 11.2367 32.3795 11.2942 32.1351 11.4021C31.8906 11.5099 31.6822 11.6753 31.5024 11.8837C31.3227 12.0994 31.1789 12.3582 31.0711 12.6745C30.9632 12.9909 30.9129 13.3503 30.9129 13.7601V17.2683H29.2882V9.89955H29.2954ZM41.0855 17.2755H39.4895V16.2475H39.4607C39.2594 16.6213 38.9647 16.9161 38.5693 17.1389C38.1739 17.3618 37.7713 17.4768 37.3615 17.4768C36.391 17.4768 35.6865 17.2396 35.2551 16.7579C34.8238 16.2763 34.6081 15.5502 34.6081 14.5796V9.89955H36.2328V14.4215C36.2328 15.0685 36.3551 15.5286 36.6067 15.7946C36.8511 16.0606 37.2034 16.1972 37.6491 16.1972C37.9942 16.1972 38.2745 16.1469 38.5046 16.039C38.7346 15.9312 38.9215 15.7946 39.0581 15.6149C39.2019 15.4423 39.3026 15.2267 39.3673 14.9822C39.432 14.7378 39.4607 14.4718 39.4607 14.1842V9.90674H41.0855V17.2755ZM43.8533 14.9103C43.9036 15.3848 44.0833 15.7155 44.3924 15.9096C44.7088 16.0965 45.0826 16.1972 45.5211 16.1972C45.6721 16.1972 45.8446 16.1828 46.0387 16.1612C46.2328 16.1397 46.4198 16.0893 46.5851 16.0246C46.7576 15.9599 46.8942 15.8593 47.0093 15.7299C47.1171 15.6005 47.1674 15.4351 47.1602 15.2267C47.153 15.0182 47.074 14.8456 46.9302 14.7162C46.7864 14.5796 46.6067 14.479 46.3838 14.3927C46.1609 14.3136 45.9093 14.2417 45.6218 14.1842C45.3342 14.1267 45.0466 14.062 44.7519 13.9973C44.4499 13.9326 44.1552 13.8464 43.8748 13.7529C43.5944 13.6594 43.3428 13.53 43.12 13.3647C42.8971 13.2065 42.7174 12.998 42.588 12.7464C42.4514 12.4948 42.3867 12.1857 42.3867 11.8118C42.3867 11.4093 42.4873 11.0786 42.6814 10.8054C42.8755 10.5322 43.1272 10.3165 43.4219 10.1512C43.7238 9.98582 44.0545 9.87079 44.4212 9.7989C44.7878 9.7342 45.1401 9.69826 45.4708 9.69826C45.8518 9.69826 46.2185 9.74139 46.5635 9.82047C46.9086 9.89955 47.2249 10.029 47.5053 10.2159C47.7857 10.3956 48.0157 10.6328 48.2026 10.9204C48.3896 11.208 48.5046 11.5602 48.5549 11.97H46.8583C46.7792 11.5818 46.6067 11.3158 46.3263 11.1864C46.0459 11.0498 45.7224 10.9851 45.363 10.9851C45.2479 10.9851 45.1113 10.9923 44.9532 11.0139C44.795 11.0354 44.6512 11.0714 44.5075 11.1217C44.3709 11.172 44.2558 11.2511 44.1552 11.3517C44.0617 11.4524 44.0114 11.5818 44.0114 11.7471C44.0114 11.9484 44.0833 12.1066 44.2199 12.2288C44.3565 12.351 44.5362 12.4517 44.7591 12.5379C44.9819 12.617 45.2336 12.6889 45.5211 12.7464C45.8087 12.8039 46.1034 12.8686 46.4054 12.9333C46.7001 12.998 46.9877 13.0843 47.2752 13.1778C47.5628 13.2712 47.8144 13.4006 48.0373 13.566C48.2602 13.7313 48.4399 13.9326 48.5765 14.177C48.7131 14.4215 48.785 14.7306 48.785 15.0901C48.785 15.5286 48.6843 15.8952 48.483 16.2044C48.2817 16.5063 48.0229 16.7579 47.7066 16.9448C47.3903 17.1318 47.0308 17.2755 46.6426 17.3618C46.2544 17.4481 45.8662 17.4912 45.4852 17.4912C45.0179 17.4912 44.5865 17.4409 44.1911 17.3331C43.7957 17.2252 43.4507 17.0671 43.1631 16.8586C42.8755 16.6429 42.6455 16.3769 42.4801 16.0606C42.3148 15.7443 42.2285 15.3632 42.2141 14.9247H43.8533V14.9103ZM49.2163 9.89955H50.4456V7.68532H52.0704V9.89955H53.5369V11.1145H52.0704V15.0541C52.0704 15.2267 52.0775 15.3704 52.0919 15.4998C52.1063 15.6221 52.1423 15.7299 52.1926 15.8162C52.2429 15.9024 52.322 15.9671 52.4298 16.0103C52.5377 16.0534 52.6742 16.075 52.8612 16.075C52.9762 16.075 53.0912 16.075 53.2062 16.0678C53.3213 16.0606 53.4363 16.0462 53.5513 16.0175V17.2755C53.3716 17.2971 53.1919 17.3115 53.0265 17.3331C52.854 17.3546 52.6814 17.3618 52.5017 17.3618C52.0704 17.3618 51.7253 17.3187 51.4665 17.2396C51.2077 17.1605 50.9992 17.0383 50.8554 16.8801C50.7044 16.722 50.611 16.5279 50.5535 16.2906C50.5031 16.0534 50.4672 15.7802 50.46 15.4783V11.1289H49.2307V9.89955H49.2163ZM54.6872 9.89955H56.2256V10.8988H56.2544C56.4845 10.4675 56.8008 10.1655 57.2105 9.97863C57.6203 9.79171 58.0589 9.69826 58.5405 9.69826C59.1228 9.69826 59.6261 9.7989 60.0574 10.0074C60.4888 10.2087 60.8482 10.4891 61.1358 10.8485C61.4233 11.208 61.6318 11.6249 61.7756 12.0994C61.9194 12.5739 61.9913 13.0843 61.9913 13.6235C61.9913 14.1195 61.9266 14.6012 61.7972 15.0613C61.6678 15.5286 61.4737 15.9384 61.2149 16.2978C60.9561 16.6573 60.6254 16.9377 60.2228 17.1533C59.8202 17.369 59.3529 17.4768 58.8065 17.4768C58.5693 17.4768 58.332 17.4553 58.0948 17.4121C57.8576 17.369 57.6275 17.2971 57.4118 17.2036C57.1962 17.1102 56.9877 16.988 56.808 16.837C56.621 16.686 56.4701 16.5135 56.3407 16.3194H56.3119V20.0002H54.6872V9.89955ZM60.3666 13.5947C60.3666 13.264 60.3234 12.9405 60.2372 12.6242C60.1509 12.3079 60.0215 12.0347 59.8489 11.7903C59.6764 11.5458 59.4607 11.3517 59.2091 11.208C58.9503 11.0642 58.6555 10.9851 58.3249 10.9851C57.6419 10.9851 57.1243 11.2223 56.7792 11.6968C56.4341 12.1713 56.2616 12.8039 56.2616 13.5947C56.2616 13.9686 56.3047 14.3136 56.3982 14.63C56.4916 14.9463 56.621 15.2195 56.808 15.4495C56.9877 15.6796 57.2034 15.8593 57.455 15.9887C57.7066 16.1253 58.0014 16.19 58.332 16.19C58.7059 16.19 59.015 16.1109 59.2738 15.9599C59.5326 15.809 59.7411 15.6077 59.9064 15.3704C60.0718 15.126 60.194 14.8528 60.2659 14.5437C60.3306 14.2346 60.3666 13.9182 60.3666 13.5947ZM63.235 7.08862H64.8597V8.62708H63.235V7.08862ZM63.235 9.89955H64.8597V17.2755H63.235V9.89955ZM66.3119 7.08862H67.9366V17.2755H66.3119V7.08862ZM72.9187 17.4768C72.3292 17.4768 71.8044 17.3762 71.3443 17.1821C70.8842 16.988 70.496 16.7148 70.1724 16.3769C69.8561 16.0318 69.6117 15.6221 69.4464 15.1476C69.281 14.6731 69.1947 14.1483 69.1947 13.5804C69.1947 13.0196 69.281 12.502 69.4464 12.0275C69.6117 11.553 69.8561 11.1433 70.1724 10.7982C70.4888 10.4531 70.8842 10.1871 71.3443 9.99301C71.8044 9.7989 72.3292 9.69826 72.9187 9.69826C73.5082 9.69826 74.033 9.7989 74.4931 9.99301C74.9532 10.1871 75.3414 10.4603 75.6649 10.7982C75.9812 11.1433 76.2256 11.553 76.391 12.0275C76.5563 12.502 76.6426 13.0196 76.6426 13.5804C76.6426 14.1483 76.5563 14.6731 76.391 15.1476C76.2256 15.6221 75.9812 16.0318 75.6649 16.3769C75.3486 16.722 74.9532 16.988 74.4931 17.1821C74.033 17.3762 73.5082 17.4768 72.9187 17.4768ZM72.9187 16.19C73.2781 16.19 73.5944 16.1109 73.8604 15.9599C74.1264 15.809 74.3421 15.6077 74.5146 15.3632C74.6872 15.1188 74.8094 14.8384 74.8957 14.5293C74.9748 14.2202 75.0179 13.9039 75.0179 13.5804C75.0179 13.264 74.9748 12.9549 74.8957 12.6386C74.8166 12.3223 74.6872 12.0491 74.5146 11.8047C74.3421 11.5602 74.1264 11.3661 73.8604 11.2152C73.5944 11.0642 73.2781 10.9851 72.9187 10.9851C72.5592 10.9851 72.2429 11.0642 71.9769 11.2152C71.7109 11.3661 71.4952 11.5674 71.3227 11.8047C71.1502 12.0491 71.0279 12.3223 70.9417 12.6386C70.8626 12.9549 70.8195 13.264 70.8195 13.5804C70.8195 13.9039 70.8626 14.2202 70.9417 14.5293C71.0208 14.8384 71.1502 15.1188 71.3227 15.3632C71.4952 15.6077 71.7109 15.809 71.9769 15.9599C72.2429 16.1181 72.5592 16.19 72.9187 16.19ZM77.1171 9.89955H78.3464V7.68532H79.9712V9.89955H81.4377V11.1145H79.9712V15.0541C79.9712 15.2267 79.9783 15.3704 79.9927 15.4998C80.0071 15.6221 80.043 15.7299 80.0934 15.8162C80.1437 15.9024 80.2228 15.9671 80.3306 16.0103C80.4384 16.0534 80.575 16.075 80.762 16.075C80.877 16.075 80.992 16.075 81.107 16.0678C81.222 16.0606 81.3371 16.0462 81.4521 16.0175V17.2755C81.2724 17.2971 81.0926 17.3115 80.9273 17.3331C80.7548 17.3546 80.5822 17.3618 80.4025 17.3618C79.9712 17.3618 79.6261 17.3187 79.3673 17.2396C79.1085 17.1605 78.9 17.0383 78.7562 16.8801C78.6052 16.722 78.5118 16.5279 78.4543 16.2906C78.4039 16.0534 78.368 15.7802 78.3608 15.4783V11.1289H77.1315V9.89955H77.1171Z" fill="white"/>
<path d="M19.504 7.08879H12.0561L9.75557 0.000366211L7.44788 7.08879L0 7.0816L6.03163 11.4669L3.72394 18.5482L9.75557 14.17L15.78 18.5482L13.4795 11.4669L19.504 7.08879Z" fill="#00B67A"/>
<path d="M13.9969 13.07L13.4793 11.4668L9.75534 14.1699L13.9969 13.07Z" fill="#005128"/>
</g>
<defs>
<clipPath id="clip0_125_1244">
<rect width="81.4378" height="20" fill="white"/>
</clipPath>
</defs>
</svg>
