<svg width="85" height="13" viewBox="0 0 85 13" fill="none" xmlns="http://www.w3.org/2000/svg">
<rect width="13.535" height="12.9936" transform="translate(0 0.00317383)" fill="#02B476"/>
<path d="M3.82225 10.3499L4.52607 7.32499L2.16556 5.29047L5.28403 5.02135L6.49677 2.1687L7.70951 5.02135L10.828 5.29047L8.46747 7.32499L9.17129 10.3499L6.49677 8.74593L3.82225 10.3499Z" fill="white"/>
<rect width="13.535" height="12.9936" transform="translate(17.8662 0.00317383)" fill="#02B476"/>
<path d="M21.6888 10.3499L22.3926 7.32499L20.0321 5.29047L23.1506 5.02135L24.3633 2.1687L25.5761 5.02135L28.6945 5.29047L26.334 7.32499L27.0378 10.3499L24.3633 8.74593L21.6888 10.3499Z" fill="white"/>
<rect width="13.535" height="12.9936" transform="translate(35.7323 0.00317383)" fill="#02B476"/>
<path d="M39.5544 10.3499L40.2582 7.32499L37.8977 5.29047L41.0162 5.02135L42.2289 2.1687L43.4417 5.02135L46.5601 5.29047L44.1996 7.32499L44.9034 10.3499L42.2289 8.74593L39.5544 10.3499Z" fill="white"/>
<rect width="13.535" height="12.9936" transform="translate(53.5988 0.00317383)" fill="#02B476"/>
<path d="M57.4212 10.3499L58.125 7.32499L55.7645 5.29047L58.883 5.02135L60.0957 2.1687L61.3085 5.02135L64.4269 5.29047L62.0664 7.32499L62.7703 10.3499L60.0957 8.74593L57.4212 10.3499Z" fill="white"/>
<rect width="13.535" height="12.9936" transform="translate(71.465 0.00317383)" fill="#02B476"/>
<path d="M75.2877 10.3499L75.9915 7.32499L73.631 5.29047L76.7495 5.02135L77.9622 2.1687L79.1749 5.02135L82.2934 5.29047L79.9329 7.32499L80.6367 10.3499L77.9622 8.74593L75.2877 10.3499Z" fill="white"/>
</svg>
