<svg width="123" height="16" viewBox="0 0 123 16" fill="none" xmlns="http://www.w3.org/2000/svg">
<g opacity="0.7">
<g clip-path="url(#clip0_125_2568)">
<path d="M17.3581 6.02405C17.3389 7.53387 18.7036 8.37636 19.7316 8.87731C20.7878 9.39125 21.1426 9.72085 21.1384 10.1805C21.1305 10.8839 20.2959 11.1944 19.5149 11.2064C18.1523 11.2275 17.36 10.8385 16.7302 10.5443L16.2393 12.8412C16.8713 13.1324 18.0414 13.3863 19.2548 13.3975C22.1031 13.3975 23.9665 11.9915 23.9766 9.81158C23.9877 7.04498 20.1498 6.89184 20.1761 5.65525C20.1851 5.28029 20.5429 4.88015 21.3269 4.77841C21.715 4.72702 22.7862 4.68769 24.0008 5.24699L24.4775 3.02474C23.8243 2.78691 22.9849 2.55918 21.9397 2.55918C19.2588 2.55918 17.3733 3.9843 17.3581 6.02405ZM29.0581 2.75059C28.538 2.75059 28.0997 3.05397 27.9041 3.51953L23.8355 13.2342H26.6817L27.2481 11.669H30.726L31.0546 13.2342H33.5632L31.3741 2.75059H29.0581ZM29.4563 5.58262L30.2777 9.51934H28.0281L29.4563 5.58262ZM13.9072 2.75072L11.6637 13.2341H14.3759L16.6184 2.75046H13.9072M9.89497 2.75046L7.072 9.88618L5.93006 3.81898C5.79607 3.14168 5.26693 2.75059 4.67931 2.75059H0.0646353L0 3.05502C0.947373 3.2606 2.02375 3.59216 2.67588 3.94694C3.07496 4.16366 3.18876 4.3531 3.31987 4.86809L5.48273 13.2342H8.34884L12.743 2.75059L9.89497 2.75046Z" fill="url(#paint0_linear_125_2568)"/>
</g>
<g clip-path="url(#clip1_125_2568)">
<path d="M44.4587 15.3461V14.3639C44.4587 13.9874 44.2294 13.7419 43.8365 13.7419C43.6401 13.7419 43.4273 13.8074 43.28 14.0202C43.1654 13.8401 43.0018 13.7419 42.7562 13.7419C42.5925 13.7419 42.4289 13.791 42.2979 13.971V13.7746H41.9541V15.3461H42.2979V14.4785C42.2979 14.2003 42.4452 14.0692 42.6744 14.0692C42.9035 14.0692 43.0182 14.2166 43.0182 14.4785V15.3461H43.3619V14.4785C43.3619 14.2003 43.5255 14.0692 43.7383 14.0692C43.9676 14.0692 44.0821 14.2166 44.0821 14.4785V15.3461H44.4587ZM49.5494 13.7746H48.9929V13.2999H48.6492V13.7746H48.3382V14.0856H48.6491V14.8059C48.6491 15.166 48.7964 15.3788 49.1893 15.3788C49.3367 15.3788 49.5003 15.3297 49.615 15.2643L49.5167 14.9696C49.4185 15.035 49.3039 15.0514 49.2221 15.0514C49.0584 15.0514 48.9929 14.9532 48.9929 14.7895V14.0856H49.5494V13.7746ZM52.4632 13.7418C52.2668 13.7418 52.1359 13.8401 52.054 13.971V13.7746H51.7102V15.3461H52.054V14.4621C52.054 14.2003 52.1685 14.0529 52.3813 14.0529C52.4468 14.0529 52.5287 14.0693 52.5941 14.0856L52.6923 13.7583C52.6269 13.7419 52.5287 13.7419 52.4632 13.7419V13.7418ZM48.0599 13.9056C47.8961 13.791 47.667 13.7419 47.4214 13.7419C47.0286 13.7419 46.7667 13.9383 46.7667 14.2493C46.7667 14.5113 46.9631 14.6585 47.3069 14.7077L47.4706 14.7241C47.6506 14.7567 47.7489 14.8059 47.7489 14.8878C47.7489 15.0023 47.6179 15.0842 47.3887 15.0842C47.1595 15.0842 46.9795 15.0023 46.8649 14.9205L46.7012 15.1824C46.8813 15.3133 47.1268 15.3788 47.3723 15.3788C47.8307 15.3788 48.0926 15.166 48.0926 14.8714C48.0926 14.5931 47.8798 14.4457 47.5524 14.3967L47.3887 14.3803C47.2413 14.3639 47.1268 14.3312 47.1268 14.233C47.1268 14.1184 47.2413 14.0529 47.4214 14.0529C47.6179 14.0529 47.8143 14.1347 47.9125 14.1838L48.0599 13.9056ZM57.194 13.7419C56.9975 13.7419 56.8665 13.8401 56.7847 13.971V13.7746H56.4409V15.3461H56.7847V14.4621C56.7847 14.2003 56.8993 14.0529 57.112 14.0529C57.1775 14.0529 57.2594 14.0693 57.3249 14.0856L57.4231 13.7583C57.3576 13.7419 57.2594 13.7419 57.194 13.7419ZM52.807 14.5603C52.807 15.035 53.1343 15.3788 53.6418 15.3788C53.8709 15.3788 54.0346 15.3297 54.1983 15.1988L54.0346 14.9205C53.9037 15.0187 53.7727 15.0678 53.6254 15.0678C53.3471 15.0678 53.1507 14.8714 53.1507 14.5603C53.1507 14.2657 53.3471 14.0692 53.6254 14.0529C53.7727 14.0529 53.9037 14.102 54.0346 14.2003L54.1983 13.922C54.0346 13.791 53.8709 13.7419 53.6418 13.7419C53.1343 13.7419 52.807 14.0856 52.807 14.5603ZM55.9826 14.5603V13.7746H55.6389V13.971C55.5242 13.8238 55.3606 13.7419 55.1478 13.7419C54.7058 13.7419 54.362 14.0856 54.362 14.5603C54.362 15.035 54.7058 15.3788 55.1478 15.3788C55.3769 15.3788 55.5407 15.297 55.6389 15.1496V15.3461H55.9826V14.5603ZM54.7221 14.5603C54.7221 14.2821 54.9022 14.0529 55.1968 14.0529C55.4751 14.0529 55.6716 14.2657 55.6716 14.5603C55.6716 14.8386 55.4751 15.0678 55.1968 15.0678C54.9022 15.0514 54.7221 14.8386 54.7221 14.5603ZM50.6135 13.7419C50.1551 13.7419 49.8277 14.0692 49.8277 14.5603C49.8277 15.0514 50.1551 15.3788 50.6298 15.3788C50.859 15.3788 51.0882 15.3133 51.2683 15.166L51.1045 14.9205C50.9736 15.0187 50.8099 15.0842 50.6462 15.0842C50.4334 15.0842 50.2206 14.986 50.1715 14.7076H51.3337V14.5767C51.3501 14.0692 51.0555 13.7419 50.6135 13.7419ZM50.6135 14.0365C50.8262 14.0365 50.9736 14.1675 51.0063 14.4131H50.1879C50.2206 14.2003 50.3679 14.0365 50.6135 14.0365ZM59.1419 14.5603V13.1526H58.7981V13.971C58.6835 13.8238 58.5198 13.7419 58.307 13.7419C57.8651 13.7419 57.5213 14.0856 57.5213 14.5603C57.5213 15.035 57.8651 15.3788 58.307 15.3788C58.5362 15.3788 58.6999 15.297 58.7981 15.1496V15.3461H59.1419V14.5603ZM57.8815 14.5603C57.8815 14.2821 58.0615 14.0529 58.3562 14.0529C58.6344 14.0529 58.8308 14.2657 58.8308 14.5603C58.8308 14.8386 58.6344 15.0678 58.3562 15.0678C58.0615 15.0514 57.8815 14.8386 57.8815 14.5603ZM46.3902 14.5603V13.7746H46.0464V13.971C45.9318 13.8238 45.7681 13.7419 45.5553 13.7419C45.1134 13.7419 44.7696 14.0856 44.7696 14.5603C44.7696 15.035 45.1134 15.3788 45.5553 15.3788C45.7845 15.3788 45.9482 15.297 46.0464 15.1496V15.3461H46.3902V14.5603ZM45.1134 14.5603C45.1134 14.2821 45.2934 14.0529 45.588 14.0529C45.8663 14.0529 46.0628 14.2657 46.0628 14.5603C46.0628 14.8386 45.8663 15.0678 45.588 15.0678C45.2934 15.0514 45.1134 14.8386 45.1134 14.5603Z" fill="#11164C"/>
<path d="M48.2675 6.47352C48.2675 4.59108 49.1514 2.92137 50.5101 1.84097C49.5116 1.05526 48.2512 0.580566 46.8762 0.580566C43.6186 0.580566 40.9832 3.21599 40.9832 6.47352C40.9832 9.73098 43.6186 12.3665 46.8761 12.3665C48.2511 12.3665 49.5115 11.8918 50.5101 11.106C49.1514 10.042 48.2675 8.35596 48.2675 6.47352Z" fill="#11164C"/>
<path d="M60.0523 6.47352C60.0523 9.73098 57.4169 12.3665 54.1593 12.3665C52.7843 12.3665 51.5239 11.8918 50.5254 11.106C51.9004 10.0257 52.768 8.35596 52.768 6.47352C52.768 4.59108 51.884 2.92137 50.5254 1.84097C51.5238 1.05526 52.7843 0.580566 54.1593 0.580566C57.4169 0.580566 60.0523 3.23239 60.0523 6.47352Z" fill="#11164C"/>
</g>
<g clip-path="url(#clip2_125_2568)">
<path d="M78.1623 1.73578C77.4776 0.955411 76.24 0.62085 74.6567 0.62085H70.0616C69.905 0.620855 69.7534 0.676743 69.6343 0.778464C69.5152 0.880185 69.4362 1.02107 69.4117 1.17578L67.4984 13.3106C67.4603 13.5498 67.6456 13.7665 67.8882 13.7665H70.725L71.4375 9.24752L71.4154 9.38903C71.4661 9.0696 71.7393 8.83399 72.0628 8.83399H73.4109C76.0592 8.83399 78.1329 7.75833 78.7386 4.64664C78.7566 4.55461 78.7722 4.46504 78.7856 4.37753C78.7092 4.33704 78.7092 4.33704 78.7856 4.37753C78.966 3.22742 78.7844 2.44455 78.1623 1.73578Z" fill="#11164C"/>
<path d="M72.523 3.96322C72.6005 3.92629 72.6854 3.90716 72.7713 3.90721H76.3738C76.8004 3.90721 77.1983 3.93497 77.5619 3.99349C77.6636 4.00971 77.7648 4.02908 77.8654 4.05157C78.0079 4.08301 78.1487 4.1215 78.2874 4.16689C78.4662 4.22659 78.6327 4.29611 78.7857 4.37753C78.966 3.22698 78.7844 2.44455 78.1623 1.73578C77.4772 0.955411 76.24 0.62085 74.6567 0.62085H70.0612C69.7377 0.62085 69.4624 0.856404 69.4117 1.17578L67.4984 13.3101C67.4603 13.5498 67.6456 13.7662 67.8878 13.7662H70.725L72.2032 4.39266C72.2177 4.30053 72.2544 4.21331 72.3101 4.1385C72.3658 4.06369 72.4389 4.00354 72.523 3.96322Z" fill="#11164C"/>
<path d="M78.7431 4.64631C78.1374 7.75755 76.0638 8.83366 73.4154 8.83366H72.067C71.7435 8.83366 71.4702 9.06927 71.42 9.38869L70.5336 15.0075C70.5005 15.217 70.6624 15.4067 70.8743 15.4067H73.2657C73.4027 15.4067 73.5352 15.3578 73.6393 15.2688C73.7435 15.1798 73.8125 15.0566 73.8339 14.9213L73.8572 14.7994L74.3079 11.9429L74.3369 11.785C74.3583 11.6497 74.4273 11.5265 74.5314 11.4375C74.6356 11.3485 74.768 11.2996 74.905 11.2996H75.2629C77.5795 11.2996 79.3934 10.3584 79.9235 7.63653C80.1447 6.49905 80.0303 5.54937 79.445 4.88231C79.2674 4.68026 79.047 4.5134 78.7901 4.3772C78.7762 4.46515 78.7611 4.55428 78.7431 4.64631Z" fill="#11164C" fill-opacity="0.38"/>
<path d="M78.149 4.12485C78.0545 4.09727 77.9592 4.07285 77.8631 4.05164C77.7625 4.02952 77.6613 4.01028 77.5596 3.99395C77.1956 3.93504 76.798 3.90723 76.371 3.90723H72.769C72.683 3.90703 72.5981 3.92634 72.5207 3.96368C72.4365 4.00388 72.3634 4.06399 72.3076 4.13882C72.2519 4.21365 72.2152 4.30094 72.2008 4.39313L71.4352 9.24759L71.4131 9.3891C71.4634 9.06967 71.7366 8.83406 72.0602 8.83406H73.4087C76.057 8.83406 78.1306 7.7584 78.7363 4.64671C78.7543 4.55468 78.7695 4.4655 78.7834 4.3776C78.63 4.29662 78.4639 4.22666 78.2851 4.16735C78.24 4.15239 78.1946 4.13822 78.149 4.12485" fill="#11164C"/>
</g>
<path d="M122.001 8.23368C122.001 5.84113 120.83 3.95327 118.592 3.95327C116.344 3.95327 114.984 5.8412 114.984 8.21501C114.984 11.028 116.59 12.4486 118.894 12.4486C120.018 12.4486 120.868 12.1963 121.51 11.8412V9.97198C120.868 10.2898 120.131 10.4861 119.196 10.4861C118.28 10.4861 117.468 10.1683 117.364 9.06547H121.982C121.982 8.9439 122.001 8.45795 122.001 8.23368ZM117.336 7.34583C117.336 6.28976 117.987 5.85047 118.582 5.85047C119.158 5.85047 119.772 6.28976 119.772 7.34583H117.336ZM111.339 3.95327C110.413 3.95327 109.818 4.38316 109.487 4.68229L109.365 4.10283H107.287V15L109.648 14.5047L109.657 11.8598C109.997 12.1028 110.498 12.4486 111.329 12.4486C113.02 12.4486 114.559 11.1028 114.559 8.14023C114.55 5.4299 112.991 3.95327 111.338 3.95327H111.339ZM110.772 10.3925C110.215 10.3925 109.884 10.1963 109.657 9.95332L109.648 6.48598C109.893 6.21498 110.233 6.02809 110.772 6.02809C111.631 6.02809 112.226 6.98132 112.226 8.20562C112.226 9.45797 111.641 10.3925 110.772 10.3925ZM104.038 3.40187L106.408 2.8972V1L104.038 1.49534V3.40187ZM104.038 4.11216H106.408V12.2897H104.038V4.11216ZM101.497 4.80373L101.346 4.11216H99.3062V12.2897H101.667V6.74771C102.225 6.02809 103.169 6.15892 103.462 6.2617V4.11216C103.16 3.99999 102.055 3.79437 101.497 4.80373ZM96.7751 2.08413L94.4707 2.57008L94.4612 10.0561C94.4612 11.4393 95.5096 12.458 96.9074 12.458C97.6818 12.458 98.2484 12.3178 98.5601 12.1496V10.2524C98.2579 10.3739 96.7656 10.8038 96.7656 9.42058V6.1028H98.5601V4.11216H96.7656L96.7751 2.08413ZM90.3907 6.48598C90.3907 6.12153 90.6929 5.9813 91.1935 5.9813C91.9112 5.9813 92.8179 6.19631 93.5357 6.57948V4.38316C92.7518 4.07477 91.9774 3.95327 91.1935 3.95327C89.2762 3.95327 88.0012 4.94396 88.0012 6.59821C88.0012 9.17758 91.5901 8.76641 91.5901 9.8786C91.5901 10.3084 91.2124 10.4487 90.6834 10.4487C89.8996 10.4487 88.8984 10.1309 88.1051 9.70098V11.9253C88.9834 12.2991 89.8712 12.458 90.6834 12.458C92.6479 12.458 93.9984 11.4954 93.9984 9.82248C93.989 7.03744 90.3907 7.53272 90.3907 6.48598Z" fill="#11164C"/>
</g>
<defs>
<linearGradient id="paint0_linear_125_2568" x1="1543.03" y1="35.1391" x2="1574.41" y2="-1077.97" gradientUnits="userSpaceOnUse">
<stop stop-color="#595C82"/>
<stop offset="1" stop-color="#3E4271"/>
</linearGradient>
<clipPath id="clip0_125_2568">
<rect width="33.5636" height="10.8818" fill="white" transform="translate(0 2.55908)"/>
</clipPath>
<clipPath id="clip1_125_2568">
<rect width="19.0911" height="14.8388" fill="white" transform="translate(40.9829 0.580566)"/>
</clipPath>
<clipPath id="clip2_125_2568">
<rect width="12.5805" height="14.8388" fill="white" transform="translate(67.4934 0.580566)"/>
</clipPath>
</defs>
</svg>
